<svg width="19" height="20" viewBox="0 0 19 20" fill="none" xmlns="http://www.w3.org/2000/svg">
<path d="M9.5 0.5C4.2579 0.5 0 4.7579 0 10C0 15.2421 4.2579 19.5 9.5 19.5C14.7421 19.5 19 15.2421 19 10C19 4.7579 14.7421 0.5 9.5 0.5ZM9.5 1.32609C14.2952 1.32609 18.1739 5.20482 18.1739 10C18.1739 14.7952 14.2952 18.6739 9.5 18.6739C4.70482 18.6739 0.826087 14.7952 0.826087 10C0.826087 5.20482 4.70482 1.32609 9.5 1.32609ZM9.5 4.21739C8.8159 4.21739 8.26087 4.77242 8.26087 5.45652C8.26087 6.14062 8.8159 6.69565 9.5 6.69565C10.1841 6.69565 10.7391 6.14062 10.7391 5.45652C10.7391 4.77242 10.1841 4.21739 9.5 4.21739ZM7.84783 8.34783V9.17391H8.67391V14.5435H7.84783V15.3696H11.1522V14.5435H10.3261V8.34783H7.84783Z" fill="url(#paint0_linear_250_1428)"/>
<defs>
<linearGradient id="paint0_linear_250_1428" x1="0.916666" y1="1.77612" x2="19.7059" y2="17.1323" gradientUnits="userSpaceOnUse">
<stop offset="0.991319" stop-color="#0B1533"/>
</linearGradient>
</defs>
</svg>
