<svg width="22" height="19" viewBox="0 0 22 19" fill="none" xmlns="http://www.w3.org/2000/svg">
<path d="M4.33333 3.88H21L18.8853 11.872C18.726 12.4736 18.3896 13.0028 17.927 13.3795C17.4644 13.7563 16.9007 13.96 16.3213 13.96H7.388C6.73129 13.9604 6.09753 13.6991 5.60816 13.2261C5.11879 12.7531 4.80824 12.1017 4.736 11.3968L3.66667 1H1" stroke="#777777" stroke-width="1.04762" stroke-linecap="round" stroke-linejoin="round"/>
<path d="M7.00008 19.0001C7.73646 19.0001 8.33341 18.3554 8.33341 17.5601C8.33341 16.7648 7.73646 16.1201 7.00008 16.1201C6.2637 16.1201 5.66675 16.7648 5.66675 17.5601C5.66675 18.3554 6.2637 19.0001 7.00008 19.0001Z" fill="#777777"/>
<path d="M17.6667 19.0001C18.4031 19.0001 19 18.3554 19 17.5601C19 16.7648 18.4031 16.1201 17.6667 16.1201C16.9303 16.1201 16.3334 16.7648 16.3334 17.5601C16.3334 18.3554 16.9303 19.0001 17.6667 19.0001Z" fill="#777777"/>
</svg>
