<svg width="22" height="17" viewBox="0 0 22 17" fill="none" xmlns="http://www.w3.org/2000/svg">
<path d="M2.33341 0.166626C1.75878 0.166626 1.20768 0.386119 0.80135 0.77682C0.395021 1.16752 0.166748 1.69743 0.166748 2.24996V6.41663C0.741384 6.41663 1.29248 6.63612 1.69881 7.02682C2.10514 7.41752 2.33341 7.94743 2.33341 8.49996C2.33341 9.05249 2.10514 9.5824 1.69881 9.9731C1.29248 10.3638 0.741384 10.5833 0.166748 10.5833V14.75C0.166748 15.3025 0.395021 15.8324 0.80135 16.2231C1.20768 16.6138 1.75878 16.8333 2.33341 16.8333H19.6667C20.2414 16.8333 20.7925 16.6138 21.1988 16.2231C21.6051 15.8324 21.8334 15.3025 21.8334 14.75V10.5833C21.2588 10.5833 20.7077 10.3638 20.3014 9.9731C19.895 9.5824 19.6667 9.05249 19.6667 8.49996C19.6667 7.94743 19.895 7.41752 20.3014 7.02682C20.7077 6.63612 21.2588 6.41663 21.8334 6.41663V2.24996C21.8334 1.69743 21.6051 1.16752 21.1988 0.77682C20.7925 0.386119 20.2414 0.166626 19.6667 0.166626H2.33341ZM14.7917 3.29163L16.4167 4.85413L7.20842 13.7083L5.58342 12.1458L14.7917 3.29163ZM7.54425 3.33329C8.60592 3.33329 9.46175 4.15621 9.46175 5.17704C9.46175 5.66604 9.25973 6.135 8.90013 6.48077C8.54052 6.82654 8.0528 7.02079 7.54425 7.02079C6.48258 7.02079 5.62675 6.19788 5.62675 5.17704C5.62675 4.68805 5.82877 4.21909 6.18837 3.87331C6.54797 3.52754 7.0357 3.33329 7.54425 3.33329ZM14.4559 9.97913C15.5176 9.97913 16.3734 10.802 16.3734 11.8229C16.3734 12.3119 16.1714 12.7808 15.8118 13.1266C15.4522 13.4724 14.9645 13.6666 14.4559 13.6666C13.3942 13.6666 12.5384 12.8437 12.5384 11.8229C12.5384 11.3339 12.7404 10.8649 13.1 10.5191C13.4596 10.1734 13.9474 9.97913 14.4559 9.97913Z" fill="white"/>
</svg>
