<svg width="24" height="25" viewBox="0 0 24 25" fill="none" xmlns="http://www.w3.org/2000/svg">
<path d="M10.2 5H13.8C13.8 4.50272 13.6104 4.02581 13.2728 3.67417C12.9353 3.32254 12.4774 3.125 12 3.125C11.5226 3.125 11.0648 3.32254 10.7272 3.67417C10.3897 4.02581 10.2 4.50272 10.2 5ZM9.00002 5C9.00002 4.1712 9.3161 3.37634 9.8787 2.79029C10.4413 2.20424 11.2044 1.875 12 1.875C12.7957 1.875 13.5587 2.20424 14.1213 2.79029C14.684 3.37634 15 4.1712 15 5H21C21.1592 5 21.3118 5.06585 21.4243 5.18306C21.5368 5.30027 21.6 5.45924 21.6 5.625C21.6 5.79076 21.5368 5.94973 21.4243 6.06694C21.3118 6.18415 21.1592 6.25 21 6.25H19.7352L18.3024 19.18C18.2011 20.094 17.7808 20.9373 17.1215 21.5495C16.4621 22.1616 15.6097 22.4999 14.7264 22.5H9.27362C8.39037 22.4999 7.53796 22.1616 6.87859 21.5495C6.21922 20.9373 5.7989 20.094 5.69762 19.18L4.26482 6.25H3.00002C2.84089 6.25 2.68828 6.18415 2.57576 6.06694C2.46324 5.94973 2.40002 5.79076 2.40002 5.625C2.40002 5.45924 2.46324 5.30027 2.57576 5.18306C2.68828 5.06585 2.84089 5 3.00002 5H9.00002ZM6.88923 19.0375C6.95693 19.6467 7.23728 20.2088 7.67693 20.6168C8.11657 21.0247 8.68484 21.2501 9.27362 21.25H14.7264C15.3152 21.2501 15.8835 21.0247 16.3231 20.6168C16.7628 20.2088 17.0431 19.6467 17.1108 19.0375L18.5268 6.25H5.47322L6.88923 19.0375ZM10.2 9.375C10.3592 9.375 10.5118 9.44085 10.6243 9.55806C10.7368 9.67527 10.8 9.83424 10.8 10V17.5C10.8 17.6658 10.7368 17.8247 10.6243 17.9419C10.5118 18.0592 10.3592 18.125 10.2 18.125C10.0409 18.125 9.88828 18.0592 9.77576 17.9419C9.66324 17.8247 9.60002 17.6658 9.60002 17.5V10C9.60002 9.83424 9.66324 9.67527 9.77576 9.55806C9.88828 9.44085 10.0409 9.375 10.2 9.375ZM14.4 10C14.4 9.83424 14.3368 9.67527 14.2243 9.55806C14.1118 9.44085 13.9592 9.375 13.8 9.375C13.6409 9.375 13.4883 9.44085 13.3758 9.55806C13.2632 9.67527 13.2 9.83424 13.2 10V17.5C13.2 17.6658 13.2632 17.8247 13.3758 17.9419C13.4883 18.0592 13.6409 18.125 13.8 18.125C13.9592 18.125 14.1118 18.0592 14.2243 17.9419C14.3368 17.8247 14.4 17.6658 14.4 17.5V10Z" fill="#AB1414"/>
</svg>
