<svg width="27" height="23" viewBox="0 0 27 23" fill="none" xmlns="http://www.w3.org/2000/svg">
<path fill-rule="evenodd" clip-rule="evenodd" d="M18.2812 3.59375V5.21333L20.5312 6.74667V3.59375H18.2812ZM22.2188 7.89667V3.35417C22.2188 2.69292 21.5887 2.15625 20.8125 2.15625H18C17.2238 2.15625 16.5938 2.69292 16.5938 3.35417V4.06333L16.1359 3.75092C15.3878 3.24095 14.4582 2.96311 13.5 2.96311C12.5418 2.96311 11.6122 3.24095 10.8641 3.75092L1.7235 9.98008C1.54866 10.0992 1.4365 10.2725 1.41171 10.462C1.38692 10.6516 1.45153 10.8417 1.59131 10.9906C1.7311 11.1396 1.93462 11.2351 2.15709 11.2562C2.37957 11.2774 2.60278 11.2223 2.77763 11.1033L3.65625 10.5033V20.3646H2.25C2.02622 20.3646 1.81161 20.4403 1.65338 20.5751C1.49514 20.7099 1.40625 20.8927 1.40625 21.0833C1.40625 21.274 1.49514 21.4568 1.65338 21.5916C1.81161 21.7264 2.02622 21.8021 2.25 21.8021H24.75C24.9738 21.8021 25.1884 21.7264 25.3466 21.5916C25.5049 21.4568 25.5938 21.274 25.5938 21.0833C25.5938 20.8927 25.5049 20.7099 25.3466 20.5751C25.1884 20.4403 24.9738 20.3646 24.75 20.3646H23.3438V10.5033L24.2235 11.1033C24.3986 11.2195 24.6205 11.2723 24.841 11.2501C25.0615 11.228 25.2629 11.1326 25.4014 10.9849C25.54 10.8371 25.6046 10.6487 25.5812 10.4606C25.5578 10.2725 25.4483 10.0999 25.2765 9.98008L22.2188 7.89667ZM21.6562 9.35333L15.0818 4.87313C14.6328 4.56705 14.075 4.40029 13.5 4.40029C12.925 4.40029 12.3672 4.56705 11.9182 4.87313L5.34375 9.35333V20.3646H9.28125V16.2438C9.28125 15.6074 9.28125 15.0583 9.351 14.6184C9.42525 14.1469 9.59288 13.6955 10.0226 13.3295C10.4524 12.9634 10.9834 12.8206 11.5357 12.7573C12.0521 12.6979 12.6968 12.6979 13.4449 12.6979H13.5551C14.3032 12.6979 14.9479 12.6979 15.4643 12.7573C16.0178 12.8206 16.5476 12.9634 16.9774 13.3295C17.4071 13.6955 17.5747 14.1469 17.649 14.6184C17.7187 15.0583 17.7188 15.6074 17.7188 16.2447V20.3646H21.6562V9.35333ZM16.0312 20.3646V16.2917C16.0312 15.594 16.029 15.1417 15.9772 14.8101C15.9277 14.4986 15.849 14.4009 15.7837 14.3463C15.7196 14.2916 15.6049 14.2236 15.2392 14.1814C14.8489 14.1373 14.319 14.1354 13.5 14.1354C12.681 14.1354 12.15 14.1373 11.7608 14.1814C11.3951 14.2236 11.2804 14.2916 11.2163 14.3463C11.1521 14.4009 11.0723 14.4986 11.0228 14.8101C10.971 15.1426 10.9688 15.594 10.9688 16.2917V20.3646H16.0312ZM13.5 7.90625C13.3153 7.90625 13.1325 7.93724 12.9619 7.99744C12.7912 8.05764 12.6362 8.14588 12.5056 8.25711C12.375 8.36835 12.2715 8.50041 12.2008 8.64574C12.1301 8.79108 12.0938 8.94685 12.0938 9.10417C12.0938 9.26148 12.1301 9.41725 12.2008 9.56259C12.2715 9.70793 12.375 9.83999 12.5056 9.95122C12.6362 10.0625 12.7912 10.1507 12.9619 10.2109C13.1325 10.2711 13.3153 10.3021 13.5 10.3021C13.873 10.3021 14.2306 10.1759 14.4944 9.95122C14.7581 9.72657 14.9062 9.42187 14.9062 9.10417C14.9062 8.78646 14.7581 8.48176 14.4944 8.25711C14.2306 8.03246 13.873 7.90625 13.5 7.90625ZM10.4062 9.10417C10.4063 8.40521 10.7322 7.73488 11.3124 7.24065C11.8926 6.74641 12.6795 6.46875 13.5 6.46875C14.3205 6.46875 15.1074 6.74641 15.6876 7.24065C16.2678 7.73488 16.5938 8.40521 16.5938 9.10417C16.5938 9.80312 16.2678 10.4735 15.6876 10.9677C15.1074 11.4619 14.3205 11.7396 13.5 11.7396C12.6795 11.7396 11.8926 11.4619 11.3124 10.9677C10.7322 10.4735 10.4062 9.80312 10.4062 9.10417Z" fill="#545454"/>
</svg>
