<svg width="46" height="46" viewBox="0 0 46 46" fill="none" xmlns="http://www.w3.org/2000/svg">
<circle cx="23" cy="23" r="23" fill="#008000"/>
<path d="M27 26.4467V17.7292C27 17.243 26.7893 16.7767 26.4142 16.4328C26.0391 16.089 25.5304 15.8959 25 15.8959H15C14.4696 15.8959 13.9609 16.089 13.5858 16.4328C13.2107 16.7767 13 17.243 13 17.7292V25.9792C13 26.2223 13.1054 26.4555 13.2929 26.6274C13.4804 26.7993 13.7348 26.8959 14 26.8959H14.71C14.9049 26.4879 15.2253 26.1408 15.632 25.8971C16.0387 25.6534 16.5141 25.5236 17 25.5236C17.4859 25.5236 17.9613 25.6534 18.368 25.8971C18.7747 26.1408 19.0951 26.4879 19.29 26.8959H26.71C26.783 26.7345 26.88 26.5833 27 26.4467ZM27 26.4467C27.2599 26.1236 27.6081 25.869 28.0096 25.7086C28.4111 25.5483 28.8517 25.4878 29.2868 25.5334C29.7219 25.5789 30.1362 25.7289 30.4879 25.9681C30.8396 26.2073 31.1163 26.5273 31.29 26.8959H33V24.2467C33.0004 23.5815 32.8033 22.9288 32.43 22.3584L31.2 20.4792L30.29 19.095C30.2015 18.9582 30.0757 18.8448 29.9249 18.7661C29.7741 18.6873 29.6035 18.6459 29.43 18.6459H27V26.4467Z" stroke="white" stroke-width="1.375" stroke-linecap="round" stroke-linejoin="round"/>
<path d="M22 22.3125H17M22 19.5625H17M19.5 27.8125C19.5004 28.1534 19.4179 28.4901 19.2584 28.7981C19.0989 29.106 18.8664 29.3775 18.578 29.5927C18.2895 29.8079 17.9523 29.9613 17.5909 30.0419C17.2296 30.1225 16.8531 30.1282 16.4891 30.0585C16.125 29.9888 15.7825 29.8456 15.4865 29.6392C15.1905 29.4328 14.9485 29.1685 14.778 28.8655C14.6076 28.5625 14.513 28.2284 14.5013 27.8877C14.4895 27.547 14.5608 27.2081 14.71 26.8958C14.9402 26.414 15.3442 26.0195 15.8542 25.7784C16.3642 25.5373 16.9492 25.4644 17.5109 25.5719C18.0726 25.6794 18.5769 25.9607 18.9391 26.3687C19.3013 26.7767 19.4993 27.2865 19.5 27.8125ZM31.5 27.8125C31.5004 28.1534 31.4179 28.4901 31.2584 28.7981C31.0989 29.106 30.8664 29.3775 30.578 29.5927C30.2895 29.8079 29.9523 29.9613 29.5909 30.0419C29.2296 30.1225 28.8531 30.1282 28.4891 30.0585C28.125 29.9888 27.7825 29.8456 27.4865 29.6392C27.1905 29.4328 26.9485 29.1685 26.778 28.8655C26.6076 28.5625 26.513 28.2284 26.5013 27.8877C26.4895 27.547 26.5608 27.2081 26.71 26.8958C26.783 26.7345 26.88 26.5833 27 26.4467C27.2599 26.1235 27.6081 25.8689 28.0096 25.7086C28.4111 25.5482 28.8517 25.4878 29.2868 25.5334C29.7219 25.5789 30.1362 25.7289 30.4879 25.9681C30.8396 26.2073 31.1163 26.5273 31.29 26.8958C31.43 27.1846 31.502 27.4972 31.5 27.8125Z" stroke="white" stroke-width="1.375" stroke-linecap="round" stroke-linejoin="round"/>
</svg>
