<svg width="22" height="22" viewBox="0 0 22 22" fill="none" xmlns="http://www.w3.org/2000/svg">
<path fill-rule="evenodd" clip-rule="evenodd" d="M19.6671 4.96455C19.7542 5.09674 19.793 5.25494 19.777 5.41242C19.7609 5.56991 19.6911 5.71704 19.5791 5.82897L11.1522 14.255C11.066 14.3411 10.9584 14.4028 10.8405 14.4337L7.33061 15.3504C7.21459 15.3806 7.09267 15.38 6.97695 15.3486C6.86124 15.3172 6.75575 15.2561 6.67097 15.1713C6.58618 15.0865 6.52505 14.981 6.49363 14.8653C6.46221 14.7496 6.4616 14.6277 6.49186 14.5116L7.40852 11.0026C7.43594 10.8975 7.48634 10.7999 7.55611 10.7166L16.0142 2.26405C16.1431 2.1353 16.3178 2.06299 16.5 2.06299C16.6822 2.06299 16.857 2.1353 16.9859 2.26405L19.5791 4.85638C19.6111 4.89015 19.6406 4.92631 19.6671 4.96455ZM18.1207 5.34222L16.5 3.72247L8.69186 11.5306L8.11894 13.7242L10.3125 13.1513L18.1207 5.34222Z" fill="#545454"/>
<path d="M18.0042 15.7301C18.2548 13.5887 18.3348 11.4308 18.2435 9.27674C18.2413 9.22597 18.2497 9.17531 18.2682 9.12797C18.2867 9.08063 18.3148 9.03764 18.3507 9.00174L19.2527 8.09974C19.2774 8.07495 19.3087 8.05781 19.3428 8.05037C19.377 8.04293 19.4125 8.04552 19.4453 8.05781C19.478 8.07011 19.5065 8.09159 19.5273 8.11968C19.5481 8.14777 19.5603 8.18127 19.5626 8.21615C19.7319 10.7748 19.6674 13.3436 19.3701 15.8905C19.1537 17.744 17.6651 19.1969 15.8198 19.4032C12.6164 19.7577 9.38358 19.7577 6.18014 19.4032C4.3358 19.1969 2.84622 17.744 2.62989 15.8905C2.25049 12.6412 2.25049 9.35889 2.62989 6.10965C2.84622 4.25615 4.33489 2.80324 6.18014 2.59699C8.61155 2.32845 11.0611 2.26314 13.5034 2.40174C13.5383 2.40425 13.5718 2.41672 13.5999 2.43768C13.628 2.45864 13.6495 2.48721 13.6618 2.52001C13.6742 2.5528 13.6769 2.58845 13.6696 2.62272C13.6623 2.657 13.6453 2.68847 13.6207 2.7134L12.7105 3.62274C12.6749 3.65835 12.6323 3.68625 12.5855 3.7047C12.5387 3.72315 12.4885 3.73176 12.4382 3.72999C10.4002 3.66018 8.35989 3.7383 6.33322 3.96374C5.741 4.02929 5.18817 4.29257 4.76403 4.71105C4.33989 5.12953 4.06921 5.67878 3.99572 6.27007C3.62801 9.41268 3.62801 12.5875 3.99572 15.7301C4.06921 16.3214 4.33989 16.8706 4.76403 17.2891C5.18817 17.7076 5.741 17.9709 6.33322 18.0364C9.40864 18.3802 12.5913 18.3802 15.6676 18.0364C16.2599 17.9709 16.8127 17.7076 17.2368 17.2891C17.661 16.8706 17.9307 16.3214 18.0042 15.7301Z" fill="#545454"/>
</svg>
