<svg width="18" height="18" viewBox="0 0 18 18" fill="none" xmlns="http://www.w3.org/2000/svg">
<path d="M14.0333 0.000210453C13.8219 -0.00323899 13.612 0.0357466 13.4159 0.114859C13.2199 0.193971 13.0417 0.311601 12.892 0.460784L12.1897 1.18464L16.8201 5.83602L17.5224 5.11286C17.6738 4.96159 17.7939 4.78198 17.8759 4.5843C17.9578 4.38661 18 4.17471 18 3.96072C18 3.74673 17.9578 3.53484 17.8759 3.33715C17.7939 3.13946 17.6738 2.95985 17.5224 2.80859L15.1963 0.482549C14.8872 0.175088 14.4693 0.00178952 14.0333 0.000210453ZM11.3996 1.82144L10.3018 2.87458L15.1303 7.70148L16.2498 6.6701L11.3996 1.82144ZM9.59882 3.64268L2.00673 11.167C1.92061 11.2113 1.84481 11.2733 1.7843 11.349C1.72378 11.4246 1.67992 11.5121 1.65557 11.6058L0.0304003 17.1138C-0.00629372 17.2327 -0.00983992 17.3594 0.0201433 17.4803C0.0501266 17.6011 0.112504 17.7115 0.200562 17.7995C0.288621 17.8875 0.399026 17.9499 0.519896 17.9799C0.640766 18.0098 0.767525 18.0063 0.886529 17.9696L6.39553 16.3457C6.52044 16.3266 6.6377 16.2736 6.73445 16.1923C6.8312 16.1111 6.90372 16.0048 6.94405 15.8851L14.428 8.46887L13.397 7.4382L5.71498 15.1395L2.62056 16.0381L1.96178 15.3803L2.9057 12.1556L10.5217 4.56382L9.59882 3.64268ZM11.2668 5.33191L3.56378 13.0549L4.68257 13.2958L4.83638 14.3278L12.5619 6.62587L11.2668 5.33191Z" fill="#808080"/>
</svg>
