<svg width="20" height="19" viewBox="0 0 20 19" fill="none" xmlns="http://www.w3.org/2000/svg">
<path d="M10 16.15L9.68005 15.808C9.48005 15.618 4.80005 10.374 4.80005 7.22003C4.80005 4.48403 7.12005 2.28003 10 2.28003C12.88 2.28003 15.2 4.48403 15.2 7.22003C15.2 10.374 10.52 15.618 10.32 15.846L10 16.15ZM10 3.04003C7.56005 3.04003 5.60005 4.90203 5.60005 7.22003C5.60005 9.65203 8.96005 13.756 10 14.972C11.04 13.756 14.4 9.65203 14.4 7.22003C14.4 4.90203 12.44 3.04003 10 3.04003Z" fill="#777777"/>
<path d="M10 9.11995C8.88 9.11995 8 8.28395 8 7.21995C8 6.15595 8.88 5.31995 10 5.31995C11.12 5.31995 12 6.15595 12 7.21995C12 8.28395 11.12 9.11995 10 9.11995ZM10 6.07995C9.32 6.07995 8.8 6.57395 8.8 7.21995C8.8 7.86595 9.32 8.35995 10 8.35995C10.68 8.35995 11.2 7.86595 11.2 7.21995C11.2 6.57395 10.68 6.07995 10 6.07995Z" fill="#777777"/>
</svg>
