<svg width="20" height="19" viewBox="0 0 20 19" fill="none" xmlns="http://www.w3.org/2000/svg">
<path d="M14.6253 0.571411C12.7879 0.571411 11.1904 1.44987 10.2507 2.922C9.31106 1.44987 7.71347 0.571411 5.87616 0.571411C4.48442 0.57313 3.15014 1.16007 2.16603 2.20347C1.18192 3.24688 0.62833 4.66154 0.626709 6.13713C0.626709 8.84579 2.21904 11.6648 5.35997 14.5145C6.79924 15.8148 8.35393 16.9642 10.0022 17.9467C10.0786 17.9902 10.164 18.013 10.2507 18.013C10.3374 18.013 10.4228 17.9902 10.4992 17.9467C12.1475 16.9642 13.7022 15.8148 15.1415 14.5145C18.2824 11.6648 19.8747 8.84579 19.8747 6.13713C19.8731 4.66154 19.3195 3.24688 18.3354 2.20347C17.3513 1.16007 16.017 0.57313 14.6253 0.571411ZM10.2507 16.815C8.81498 15.9365 1.6766 11.3058 1.6766 6.13713C1.67776 4.95661 2.12058 3.8248 2.9079 2.99004C3.69522 2.15529 4.76273 1.68578 5.87616 1.68456C7.65048 1.68456 9.14045 2.68917 9.76513 4.30694C9.80468 4.40902 9.87196 4.49633 9.95842 4.55778C10.0449 4.61923 10.1466 4.65203 10.2507 4.65203C10.3548 4.65203 10.4565 4.61923 10.543 4.55778C10.6295 4.49633 10.6967 4.40902 10.7363 4.30694C11.361 2.68917 12.8509 1.68456 14.6253 1.68456C15.7387 1.68578 16.8062 2.15529 17.5935 2.99004C18.3808 3.8248 18.8237 4.95661 18.8248 6.13713C18.8248 11.3058 11.6864 15.9365 10.2507 16.815Z" fill="#777777"/>
</svg>
