<svg width="19" height="20" viewBox="0 0 19 20" fill="none" xmlns="http://www.w3.org/2000/svg">
<path d="M16.0312 2.875C17.01 2.875 17.8125 3.67749 17.8125 4.65625V14.1562C17.8125 15.135 17.01 15.9375 16.0312 15.9375H10.2747L5.9375 18.8274V15.9375H4.15625C3.17749 15.9375 2.375 15.135 2.375 14.1562V4.65625C2.375 3.67749 3.17749 2.875 4.15625 2.875H16.0312ZM16.0312 4.0625H4.15625C3.82227 4.0625 3.5625 4.32227 3.5625 4.65625V14.1562C3.5625 14.4902 3.82227 14.75 4.15625 14.75H7.125V16.6101L9.91284 14.75H16.0312C16.3652 14.75 16.625 14.4902 16.625 14.1562V4.65625C16.625 4.32227 16.3652 4.0625 16.0312 4.0625ZM14.25 6.4375V7.625H5.9375V6.4375H14.25ZM14.25 8.8125V10H5.9375V8.8125H14.25ZM14.25 11.1875V12.375H9.5V11.1875H14.25Z" fill="#0B1533"/>
</svg>
