<svg width="20" height="22" viewBox="0 0 20 22" fill="none" xmlns="http://www.w3.org/2000/svg">
<path d="M1 9.23402L1.747 9.17002C1.72978 8.97793 1.63924 8.79986 1.49416 8.67279C1.34909 8.54572 1.16064 8.47941 0.967959 8.48765C0.775279 8.49589 0.593177 8.57803 0.459478 8.71702C0.325779 8.85601 0.250759 9.04116 0.25 9.23402H1ZM18.236 11.057L17.53 15.137L19.009 15.393L19.714 11.313L18.236 11.057ZM11.245 20.25H6.596V21.75H11.245V20.25ZM5.685 19.413L4.873 10.02L3.378 10.149L4.191 19.542L5.685 19.413ZM17.53 15.137C17.023 18.067 14.381 20.25 11.245 20.25V21.75C15.071 21.75 18.371 19.081 19.009 15.393L17.53 15.137ZM11.255 4.10002L10.592 8.14502L12.072 8.38702L12.735 4.34302L11.255 4.10002ZM5.188 9.24602L6.627 8.00602L5.647 6.87002L4.21 8.11002L5.188 9.24602ZM9.244 3.97202L9.72 2.13802L8.268 1.76202L7.792 3.59502L9.244 3.97202ZM10.438 1.77802L10.583 1.82502L11.042 0.397016L10.897 0.350016L10.438 1.77802ZM8.523 5.81602C8.83537 5.23201 9.0774 4.61302 9.244 3.97202L7.792 3.59502C7.65528 4.12165 7.45656 4.63021 7.2 5.11002L8.523 5.81602ZM10.583 1.82502C10.7257 1.86826 10.8551 1.94685 10.9593 2.05349C11.0635 2.16013 11.1391 2.29137 11.179 2.43502L12.631 2.05902C12.5277 1.67052 12.3278 1.31445 12.05 1.02388C11.7722 0.733312 11.4255 0.517679 11.042 0.397016L10.583 1.82502ZM9.72 2.13802C9.73993 2.06599 9.7753 1.99916 9.82365 1.94218C9.872 1.88519 9.93218 1.83941 10 1.80802L9.349 0.457016C8.817 0.713016 8.417 1.18702 8.268 1.76202L9.72 2.13802ZM10 1.80802C10.1369 1.74265 10.2935 1.73192 10.438 1.77802L10.897 0.350016C10.3863 0.186336 9.83231 0.224629 9.349 0.457016L10 1.80802ZM12.154 9.98402H17.334V8.48402H12.154V9.98402ZM2.719 20.406L1.747 9.17002L0.253 9.29902L1.223 20.535L2.719 20.406ZM1.75 20.513V9.23402H0.25V20.513H1.75ZM1.223 20.535C1.21995 20.4987 1.22549 20.4621 1.23733 20.4276C1.24918 20.3931 1.26807 20.3615 1.2928 20.3347C1.31753 20.3079 1.34757 20.2865 1.381 20.2719C1.41443 20.2573 1.45053 20.2499 1.487 20.25V21.75C2.213 21.75 2.781 21.128 2.719 20.406L1.223 20.535ZM12.735 4.34302C12.8597 3.58274 12.8243 2.80481 12.631 2.05902L11.179 2.43602C11.3199 2.97934 11.3458 3.54611 11.255 4.10002L12.735 4.34302ZM6.596 20.25C6.36701 20.2496 6.14648 20.1635 5.97785 20.0085C5.80923 19.8536 5.70475 19.6412 5.685 19.413L4.191 19.542C4.24303 20.1442 4.51888 20.705 4.96411 21.1137C5.40933 21.5225 5.99159 21.7495 6.596 21.75V20.25ZM6.627 8.00602C7.307 7.42002 8.039 6.72302 8.524 5.81602L7.2 5.11002C6.854 5.75902 6.303 6.30602 5.647 6.87002L6.627 8.00602ZM19.714 11.313C19.7742 10.966 19.7578 10.61 19.666 10.27C19.5741 9.93 19.4091 9.61418 19.1823 9.34467C18.9556 9.07516 18.6727 8.85848 18.3534 8.70982C18.0341 8.56115 17.6862 8.48408 17.334 8.48402V9.98402C17.901 9.98402 18.334 10.496 18.236 11.057L19.714 11.313ZM1.487 20.25C1.633 20.25 1.75 20.368 1.75 20.513H0.25C0.25 21.195 0.803 21.75 1.487 21.75V20.25ZM10.592 8.14502C10.5547 8.3716 10.5672 8.60357 10.6285 8.82486C10.6899 9.04614 10.7986 9.25143 10.9472 9.42648C11.0958 9.60154 11.2807 9.74217 11.4891 9.83861C11.6975 9.93506 11.9244 9.98402 12.154 9.98402V8.48402C12.1418 8.48407 12.1297 8.48243 12.1187 8.47729C12.1076 8.47215 12.0978 8.46464 12.09 8.45528C12.0821 8.44592 12.0765 8.43495 12.0734 8.42315C12.0703 8.41136 12.0698 8.39902 12.072 8.38702L10.592 8.14502ZM4.873 10.02C4.86064 9.8752 4.88184 9.72952 4.93678 9.59496C4.99171 9.4604 5.07782 9.3408 5.188 9.24602L4.208 8.10902C3.91802 8.35905 3.69156 8.67437 3.54726 9.02903C3.40296 9.38369 3.34495 9.76755 3.378 10.149L4.873 10.02Z" fill="#545454"/>
</svg>
