<svg width="18" height="18" viewBox="0 0 18 18" fill="none" xmlns="http://www.w3.org/2000/svg">
<path d="M17.5 8.76982C17.5026 10.4077 17.0155 12.0089 16.1012 13.3678C15.3471 14.4926 14.3276 15.4142 13.1326 16.0512C11.9376 16.6881 10.6041 17.0208 9.25 17.0198C7.89588 17.0208 6.56237 16.6881 5.36741 16.0512C4.17245 15.4142 3.15287 14.4926 2.39883 13.3678C1.68084 12.2975 1.22358 11.0739 1.06371 9.79505C0.90385 8.5162 1.04583 7.21767 1.47827 6.00358C1.91071 4.78948 2.62158 3.69358 3.5539 2.80374C4.48621 1.9139 5.61404 1.25486 6.84697 0.87946C8.07989 0.504059 9.38362 0.422736 10.6536 0.642012C11.9237 0.861288 13.1246 1.37506 14.1603 2.14215C15.196 2.90924 16.0375 3.9083 16.6175 5.05924C17.1975 6.21019 17.4997 7.481 17.5 8.76982Z" stroke="#545454" stroke-width="0.916667"/>
<path d="M10.6251 6.01969C10.6251 6.38437 10.4802 6.7341 10.2223 6.99197C9.96447 7.24983 9.61473 7.39469 9.25006 7.39469V8.31136C9.551 8.31136 9.849 8.25209 10.127 8.13692C10.4051 8.02175 10.6577 7.85295 10.8705 7.64015C11.0833 7.42735 11.2521 7.17472 11.3673 6.89668C11.4825 6.61864 11.5417 6.32064 11.5417 6.01969H10.6251ZM9.25006 7.39469C8.88539 7.39469 8.53565 7.24983 8.27779 6.99197C8.01992 6.7341 7.87506 6.38437 7.87506 6.01969H6.95839C6.95839 6.32064 7.01767 6.61864 7.13283 6.89668C7.248 7.17472 7.4168 7.42735 7.62961 7.64015C8.05938 8.06992 8.64227 8.31136 9.25006 8.31136V7.39469ZM7.87506 6.01969C7.87506 5.65502 8.01992 5.30528 8.27779 5.04742C8.53565 4.78956 8.88539 4.64469 9.25006 4.64469V3.72803C8.64227 3.72803 8.05938 3.96947 7.62961 4.39924C7.19983 4.82901 6.95839 5.41191 6.95839 6.01969H7.87506ZM9.25006 4.64469C9.61473 4.64469 9.96447 4.78956 10.2223 5.04742C10.4802 5.30528 10.6251 5.65502 10.6251 6.01969H11.5417C11.5417 5.41191 11.3003 4.82901 10.8705 4.39924C10.4407 3.96947 9.85785 3.72803 9.25006 3.72803V4.64469ZM2.98556 14.1377L2.54556 14.0075L2.47498 14.2468L2.63723 14.4365L2.98556 14.1377ZM15.5146 14.1377L15.8629 14.4365L16.0251 14.2468L15.9536 14.0075L15.5146 14.1377ZM6.50006 11.978H12.0001V11.0614H6.50006V11.978ZM6.50006 11.0614C5.61168 11.0612 4.74699 11.3479 4.03464 11.8787C3.3223 12.4096 2.79944 13.1562 2.54556 14.0075L3.42464 14.2688C3.62225 13.6067 4.02832 13.0261 4.58244 12.6134C5.13656 12.2006 5.80912 11.9778 6.50006 11.978V11.0614ZM9.25006 16.5614C8.12555 16.5626 7.01418 16.3198 5.99262 15.8497C4.97106 15.3797 4.06364 14.6936 3.33298 13.8389L2.63723 14.4365C3.45402 15.3915 4.46821 16.1579 5.60986 16.683C6.7515 17.2081 7.99345 17.4793 9.25006 17.478V16.5614ZM12.0001 11.978C12.6911 11.9778 13.3638 12.2008 13.9179 12.6137C14.472 13.0266 14.878 13.6074 15.0755 14.2697L15.9536 14.0075C15.6998 13.1562 15.1778 12.4096 14.4655 11.8787C13.7531 11.3479 12.8884 11.0612 12.0001 11.0614V11.978ZM15.1671 13.8389C14.4365 14.6936 13.5291 15.3797 12.5075 15.8497C11.4859 16.3198 10.3746 16.5626 9.25006 16.5614V17.478C10.5067 17.4793 11.7486 17.2081 12.8903 16.683C14.0319 16.1579 15.0461 15.3915 15.8629 14.4365L15.1671 13.8389Z" fill="#545454"/>
</svg>
