<svg width="19" height="18" viewBox="0 0 19 18" fill="none" xmlns="http://www.w3.org/2000/svg">
<path d="M18.2111 16.1058L18.0033 15.9225C17.414 15.3972 16.8981 14.7949 16.4694 14.1319C16.001 13.217 15.7205 12.2176 15.6444 11.1925V8.17361C15.6485 6.56371 15.0645 5.00773 14.0022 3.79804C12.9399 2.58834 11.4725 1.80819 9.87556 1.60417V0.815833C9.87556 0.599461 9.7896 0.391951 9.6366 0.238952C9.4836 0.0859537 9.27609 0 9.05972 0C8.84335 0 8.63584 0.0859537 8.48284 0.238952C8.32984 0.391951 8.24389 0.599461 8.24389 0.815833V1.61639C6.66127 1.83512 5.21154 2.61999 4.16321 3.82562C3.11489 5.03125 2.539 6.57595 2.54222 8.17361V11.1925C2.46617 12.2176 2.18566 13.217 1.71722 14.1319C1.29609 14.7934 0.788452 15.3956 0.207778 15.9225L0 16.1058V17.8292H18.2111V16.1058Z" fill="white"/>
</svg>
