<svg width="302" height="30" viewBox="0 0 302 30" fill="none" xmlns="http://www.w3.org/2000/svg">
<path d="M1 15L301 15" stroke="#EDF2F4" stroke-linecap="round"/>
<rect x="126" width="30" height="30" fill="white"/>
<path d="M142.151 15.256C142.151 16.1147 142.013 16.904 141.735 17.624C141.463 18.3387 141.077 18.9573 140.575 19.48C140.074 19.9973 139.474 20.4 138.775 20.688C138.077 20.976 137.301 21.12 136.447 21.12C135.599 21.12 134.823 20.976 134.119 20.688C133.421 20.4 132.821 19.9973 132.319 19.48C131.823 18.9573 131.437 18.3387 131.159 17.624C130.882 16.904 130.743 16.1147 130.743 15.256C130.743 14.4027 130.882 13.616 131.159 12.896C131.437 12.176 131.823 11.5573 132.319 11.04C132.821 10.5173 133.421 10.112 134.119 9.824C134.823 9.53067 135.599 9.384 136.447 9.384C137.301 9.384 138.077 9.53067 138.775 9.824C139.474 10.112 140.074 10.5173 140.575 11.04C141.077 11.5573 141.463 12.176 141.735 12.896C142.013 13.616 142.151 14.4027 142.151 15.256ZM140.407 15.256C140.407 14.5733 140.314 13.96 140.127 13.416C139.941 12.872 139.674 12.4107 139.327 12.032C138.986 11.6533 138.57 11.3627 138.079 11.16C137.594 10.9573 137.05 10.856 136.447 10.856C135.845 10.856 135.298 10.9573 134.807 11.16C134.322 11.3627 133.906 11.6533 133.559 12.032C133.213 12.4107 132.946 12.872 132.759 13.416C132.573 13.96 132.479 14.5733 132.479 15.256C132.479 15.944 132.573 16.56 132.759 17.104C132.946 17.6427 133.213 18.1013 133.559 18.48C133.906 18.8587 134.322 19.1493 134.807 19.352C135.298 19.5493 135.845 19.648 136.447 19.648C137.05 19.648 137.594 19.5493 138.079 19.352C138.57 19.1493 138.986 18.8587 139.327 18.48C139.674 18.1013 139.941 17.6427 140.127 17.104C140.314 16.56 140.407 15.944 140.407 15.256ZM147.547 15.048C147.984 15.048 148.368 14.9947 148.699 14.888C149.035 14.7813 149.315 14.632 149.539 14.44C149.763 14.2427 149.931 14.0107 150.043 13.744C150.155 13.472 150.211 13.1733 150.211 12.848C150.211 12.1867 149.992 11.688 149.555 11.352C149.123 11.016 148.472 10.848 147.603 10.848H145.995V15.048H147.547ZM152.907 21H151.387C151.083 21 150.862 20.88 150.723 20.64L147.883 16.656C147.792 16.5227 147.694 16.4293 147.587 16.376C147.48 16.3173 147.32 16.288 147.107 16.288H145.995V21H144.291V9.512H147.603C148.344 9.512 148.982 9.58933 149.515 9.744C150.054 9.89333 150.496 10.1093 150.843 10.392C151.195 10.6693 151.454 11.0053 151.619 11.4C151.79 11.7947 151.875 12.2373 151.875 12.728C151.875 13.128 151.814 13.504 151.691 13.856C151.568 14.208 151.387 14.5253 151.147 14.808C150.912 15.0853 150.624 15.3253 150.283 15.528C149.942 15.7307 149.555 15.8853 149.123 15.992C149.336 16.12 149.52 16.2987 149.675 16.528L152.907 21Z" fill="#2B2D42"/>
</svg>
