<svg width="24" height="24" viewBox="0 0 24 24" fill="none" xmlns="http://www.w3.org/2000/svg">
<path d="M6.85718 8.78566C6.85718 8.61516 6.92491 8.45165 7.04547 8.33109C7.16603 8.21053 7.32954 8.1428 7.50004 8.1428H16.0715C16.242 8.1428 16.4055 8.21053 16.526 8.33109C16.6466 8.45165 16.7143 8.61516 16.7143 8.78566C16.7143 8.95615 16.6466 9.11966 16.526 9.24022C16.4055 9.36078 16.242 9.42851 16.0715 9.42851H7.50004C7.32954 9.42851 7.16603 9.36078 7.04547 9.24022C6.92491 9.11966 6.85718 8.95615 6.85718 8.78566ZM6.85718 12.6428C6.85718 12.4723 6.92491 12.3088 7.04547 12.1882C7.16603 12.0677 7.32954 11.9999 7.50004 11.9999H16.0715C16.242 11.9999 16.4055 12.0677 16.526 12.1882C16.6466 12.3088 16.7143 12.4723 16.7143 12.6428C16.7143 12.8133 16.6466 12.9768 16.526 13.0974C16.4055 13.2179 16.242 13.2857 16.0715 13.2857H7.50004C7.32954 13.2857 7.16603 13.2179 7.04547 13.0974C6.92491 12.9768 6.85718 12.8133 6.85718 12.6428ZM7.50004 15.8571C7.32954 15.8571 7.16603 15.9248 7.04547 16.0454C6.92491 16.1659 6.85718 16.3294 6.85718 16.4999C6.85718 16.6704 6.92491 16.834 7.04547 16.9545C7.16603 17.0751 7.32954 17.1428 7.50004 17.1428H11.3572C11.5277 17.1428 11.6912 17.0751 11.8117 16.9545C11.9323 16.834 12 16.6704 12 16.4999C12 16.3294 11.9323 16.1659 11.8117 16.0454C11.6912 15.9248 11.5277 15.8571 11.3572 15.8571H7.50004ZM11.6251 3.42851H11.8438H12.1031H12.6429H15.8572L16.8296 3.42847L17.1429 3.42851H17.7857C18.2972 3.42851 18.7878 3.6317 19.1495 3.99338C19.5111 4.35506 19.7143 4.8456 19.7143 5.35708V16.4965C19.7142 16.667 19.6463 16.8304 19.5257 16.9508L14.808 21.6685C14.6876 21.7891 14.5242 21.8569 14.3537 21.8571H5.78575C5.27426 21.8571 4.78372 21.6539 4.42204 21.2922C4.06037 20.9305 3.85718 20.44 3.85718 19.9285V5.35708C3.85718 4.8456 4.06037 4.35506 4.42204 3.99338C4.78372 3.6317 5.27426 3.42851 5.78575 3.42851H6.85718H8.14289H11.3572H11.5053H11.6251ZM5.14289 5.35708V19.9285C5.14289 20.2834 5.43089 20.5714 5.78575 20.5714H13.7109V17.7822C13.7109 17.2707 13.9141 16.7802 14.2758 16.4185C14.6374 16.0568 15.128 15.8537 15.6395 15.8537H18.4286V5.35708C18.4286 5.18659 18.3609 5.02307 18.2403 4.90252C18.1198 4.78196 17.9562 4.71423 17.7857 4.71423H5.78575C5.61525 4.71423 5.45174 4.78196 5.33118 4.90252C5.21062 5.02307 5.14289 5.18659 5.14289 5.35708ZM15.6395 17.1394C15.469 17.1394 15.3055 17.2071 15.1849 17.3277C15.0643 17.4482 14.9966 17.6117 14.9966 17.7822V19.6619L17.5192 17.1394H15.6395Z" fill="url(#paint0_linear_250_1435)"/>
<defs>
<linearGradient id="paint0_linear_250_1435" x1="4.62221" y1="4.66621" x2="22.1229" y2="16.9734" gradientUnits="userSpaceOnUse">
<stop offset="0.991319" stop-color="#0B1533"/>
</linearGradient>
</defs>
</svg>
