<svg width="18" height="17" viewBox="0 0 18 17" fill="none" xmlns="http://www.w3.org/2000/svg">
<path d="M1.41431 14.3702C1.41431 13.3725 1.8274 12.4156 2.56271 11.7101C3.29802 11.0046 4.29531 10.6083 5.3352 10.6083H13.177C14.2169 10.6083 15.2142 11.0046 15.9495 11.7101C16.6848 12.4156 17.0979 13.3725 17.0979 14.3702C17.0979 14.869 16.8913 15.3475 16.5237 15.7002C16.156 16.053 15.6574 16.2511 15.1374 16.2511H3.37475C2.85481 16.2511 2.35616 16.053 1.98851 15.7002C1.62085 15.3475 1.41431 14.869 1.41431 14.3702Z" stroke="#777777" stroke-width="0.916667" stroke-linejoin="round"/>
<path d="M9.2561 6.84635C10.8802 6.84635 12.1968 5.58315 12.1968 4.02492C12.1968 2.46669 10.8802 1.20349 9.2561 1.20349C7.63201 1.20349 6.31543 2.46669 6.31543 4.02492C6.31543 5.58315 7.63201 6.84635 9.2561 6.84635Z" stroke="#777777" stroke-width="0.916667"/>
</svg>
