<svg width="22" height="22" viewBox="0 0 22 22" fill="none" xmlns="http://www.w3.org/2000/svg">
<path d="M13.6822 2.66845L7.5845 5.59628C7.12427 5.82058 6.60082 5.8795 6.10225 5.76312C5.89189 5.71094 5.67932 5.66812 5.46517 5.63478C3.79225 5.44503 2.75 6.7687 2.75 8.29128V9.12728C2.75 10.6489 3.79225 11.9735 5.46517 11.7819C5.67954 11.7503 5.89218 11.7077 6.10225 11.6545C6.60093 11.5384 7.12438 11.5977 7.5845 11.8223L13.6822 14.7492C15.0819 15.4211 15.7823 15.7575 16.5623 15.4954C17.3433 15.2332 17.611 14.6713 18.1463 13.5474C18.8728 12.038 19.2501 10.3844 19.2501 8.70928C19.2501 7.03415 18.8728 5.38052 18.1463 3.87112C17.611 2.74728 17.3433 2.18445 16.5623 1.9232C15.7823 1.66103 15.0819 1.99562 13.6822 2.66845Z" stroke="#545454" stroke-width="1.375" stroke-linecap="round" stroke-linejoin="round"/>
<path d="M6.87496 11.4583V5.95825M10.5031 19.0391L9.13637 20.1666C6.05454 17.7228 6.43129 16.5577 6.43129 11.9166H7.47079C7.89246 14.5383 8.88704 15.7813 10.2602 16.6805C11.1054 17.2342 11.2795 18.3993 10.5031 19.0391Z" stroke="#545454" stroke-width="1.375" stroke-linecap="round" stroke-linejoin="round"/>
</svg>
