<svg width="24" height="24" viewBox="0 0 24 24" fill="none" xmlns="http://www.w3.org/2000/svg">
<path d="M11.75 2C6.37695 2 2 6.37695 2 11.75C2 17.123 6.37695 21.5 11.75 21.5C17.123 21.5 21.5 17.123 21.5 11.75C21.5 6.37695 17.123 2 11.75 2ZM11.75 3.5C16.3145 3.5 20 7.18555 20 11.75C20 16.3145 16.3145 20 11.75 20C7.18555 20 3.5 16.3145 3.5 11.75C3.5 7.18555 7.18555 3.5 11.75 3.5ZM11 6.5V14H12.5V6.5H11ZM11 15.5V17H12.5V15.5H11Z" fill="url(#paint0_linear_250_1439)"/>
<defs>
<linearGradient id="paint0_linear_250_1439" x1="2.94079" y1="3.3097" x2="22.2245" y2="19.07" gradientUnits="userSpaceOnUse">
<stop offset="0.991319" stop-color="#0B1533"/>
</linearGradient>
</defs>
</svg>
