<svg width="24" height="24" viewBox="0 0 24 24" fill="none" xmlns="http://www.w3.org/2000/svg">
<path d="M16.2792 19.7213L6.08386 2.32251M21.7674 18.3106C21.7674 19.0589 21.4576 19.7765 20.9061 20.3057C20.3546 20.8348 19.6067 21.132 18.8268 21.132C18.0468 21.132 17.2989 20.8348 16.7474 20.3057C16.1959 19.7765 15.8861 19.0589 15.8861 18.3106C15.8861 17.5623 16.1959 16.8447 16.7474 16.3156C17.2989 15.7864 18.0468 15.4892 18.8268 15.4892C19.6067 15.4892 20.3546 15.7864 20.9061 16.3156C21.4576 16.8447 21.7674 17.5623 21.7674 18.3106Z" stroke="#777777" stroke-width="1.375" stroke-linecap="round"/>
<path d="M5.10369 20.4266C5.29867 20.4266 5.48566 20.5009 5.62353 20.6332C5.7614 20.7655 5.83886 20.9449 5.83886 21.132C5.83886 21.3191 5.7614 21.4985 5.62353 21.6307C5.48566 21.763 5.29867 21.8373 5.10369 21.8373V20.4266ZM8.77952 18.3106V19.0159H7.30919V18.3106H8.77952ZM8.29137 20.0674C8.19518 20.2294 8.03602 20.3483 7.84872 20.398C7.66141 20.4478 7.4612 20.4243 7.29185 20.3328C7.12251 20.2413 6.99782 20.0892 6.94504 19.9098C6.89226 19.7303 6.9157 19.5381 7.01022 19.3752L8.29137 20.0674ZM17.2055 1.97636C17.3012 1.81324 17.4605 1.69325 17.6483 1.64281C17.7414 1.61783 17.8386 1.61068 17.9345 1.62176C18.0304 1.63284 18.1231 1.66194 18.2073 1.70739C18.2915 1.75284 18.3655 1.81375 18.4252 1.88665C18.4848 1.95955 18.5289 2.04301 18.555 2.13226C18.581 2.22152 18.5884 2.31481 18.5769 2.40683C18.5653 2.49885 18.535 2.58778 18.4876 2.66855L17.2055 1.97636ZM2.89819 18.3106C2.89819 18.8718 3.13055 19.41 3.54417 19.8068C3.95778 20.2037 4.51875 20.4266 5.10369 20.4266V21.8373C4.1288 21.8373 3.19384 21.4658 2.50448 20.8044C1.81513 20.143 1.42786 19.2459 1.42786 18.3106H2.89819ZM7.30919 18.3106C7.30919 17.7493 7.07683 17.2111 6.66321 16.8143C6.2496 16.4174 5.68862 16.1945 5.10369 16.1945V14.7838C5.58641 14.7838 6.0644 14.875 6.51037 15.0522C6.95634 15.2295 7.36156 15.4892 7.7029 15.8167C8.04423 16.1442 8.31499 16.533 8.49972 16.9609C8.68445 17.3888 8.77952 17.8474 8.77952 18.3106H7.30919ZM5.10369 16.1945C4.51875 16.1945 3.95778 16.4174 3.54417 16.8143C3.13055 17.2111 2.89819 17.7493 2.89819 18.3106H1.42786C1.42786 17.3752 1.81513 16.4781 2.50448 15.8167C3.19384 15.1553 4.1288 14.7838 5.10369 14.7838V16.1945ZM7.01022 19.3752L17.2055 1.97636L18.4876 2.66855L8.29137 20.0674L7.01022 19.3752Z" fill="#777777"/>
</svg>
