<svg width="14" height="13" viewBox="0 0 14 13" fill="none" xmlns="http://www.w3.org/2000/svg">
<path d="M13.8289 11.983L9.84772 8.41648C10.6189 7.56313 11.0832 6.47879 11.0832 5.29779C11.0832 2.56057 8.59705 0.333374 5.54159 0.333374C2.48612 0.333374 0 2.56055 0 5.29777C0 8.03499 2.48615 10.2622 5.54162 10.2622C6.85992 10.2622 8.07034 9.84623 9.0229 9.15538L13.0041 12.7219C13.1179 12.8238 13.2672 12.875 13.4165 12.875C13.5659 12.875 13.7152 12.8238 13.8289 12.7219C14.057 12.5176 14.057 12.1873 13.8289 11.983ZM5.54162 9.21704C3.12897 9.21704 1.16666 7.45912 1.16666 5.29777C1.16666 3.13641 3.12897 1.3785 5.54162 1.3785C7.95426 1.3785 9.91657 3.13641 9.91657 5.29777C9.91657 7.45912 7.95424 9.21704 5.54162 9.21704Z" fill="url(#paint0_linear_8_531)"/>
<defs>
<linearGradient id="paint0_linear_8_531" x1="0.675438" y1="1.17573" x2="13.2782" y2="12.6735" gradientUnits="userSpaceOnUse">
<stop stop-color="#5C54A4"/>
<stop offset="0.626736" stop-color="#433A8D"/>
<stop offset="0.991319" stop-color="#32365D"/>
</linearGradient>
</defs>
</svg>
