<svg width="30" height="28" viewBox="0 0 30 28" fill="none" xmlns="http://www.w3.org/2000/svg">
<g clip-path="url(#clip0_8_521)">
<path fill-rule="evenodd" clip-rule="evenodd" d="M22.5 4.66667C22.5 4.35725 22.3683 4.0605 22.1339 3.84171C21.8995 3.62292 21.5815 3.5 21.25 3.5C20.9185 3.5 20.6005 3.62292 20.3661 3.84171C20.1317 4.0605 20 4.35725 20 4.66667V5.83333H5C4.66848 5.83333 4.35054 5.95625 4.11612 6.17504C3.8817 6.39383 3.75 6.69058 3.75 7C3.75 7.30942 3.8817 7.60616 4.11612 7.82496C4.35054 8.04375 4.66848 8.16667 5 8.16667H20V9.33333C20 9.64275 20.1317 9.9395 20.3661 10.1583C20.6005 10.3771 20.9185 10.5 21.25 10.5C21.5815 10.5 21.8995 10.3771 22.1339 10.1583C22.3683 9.9395 22.5 9.64275 22.5 9.33333V8.16667H25C25.3315 8.16667 25.6495 8.04375 25.8839 7.82496C26.1183 7.60616 26.25 7.30942 26.25 7C26.25 6.69058 26.1183 6.39383 25.8839 6.17504C25.6495 5.95625 25.3315 5.83333 25 5.83333H22.5V4.66667ZM5 12.8333C4.66848 12.8333 4.35054 12.9562 4.11612 13.175C3.8817 13.3938 3.75 13.6906 3.75 14C3.75 14.3094 3.8817 14.6062 4.11612 14.825C4.35054 15.0437 4.66848 15.1667 5 15.1667H7.5V16.3333C7.5 16.6428 7.6317 16.9395 7.86612 17.1583C8.10054 17.3771 8.41848 17.5 8.75 17.5C9.08152 17.5 9.39946 17.3771 9.63388 17.1583C9.8683 16.9395 10 16.6428 10 16.3333V15.1667H25C25.3315 15.1667 25.6495 15.0437 25.8839 14.825C26.1183 14.6062 26.25 14.3094 26.25 14C26.25 13.6906 26.1183 13.3938 25.8839 13.175C25.6495 12.9562 25.3315 12.8333 25 12.8333H10V11.6667C10 11.3572 9.8683 11.0605 9.63388 10.8417C9.39946 10.6229 9.08152 10.5 8.75 10.5C8.41848 10.5 8.10054 10.6229 7.86612 10.8417C7.6317 11.0605 7.5 11.3572 7.5 11.6667V12.8333H5ZM3.75 21C3.75 20.6906 3.8817 20.3938 4.11612 20.175C4.35054 19.9562 4.66848 19.8333 5 19.8333H20V18.6667C20 18.3572 20.1317 18.0605 20.3661 17.8417C20.6005 17.6229 20.9185 17.5 21.25 17.5C21.5815 17.5 21.8995 17.6229 22.1339 17.8417C22.3683 18.0605 22.5 18.3572 22.5 18.6667V19.8333H25C25.3315 19.8333 25.6495 19.9562 25.8839 20.175C26.1183 20.3938 26.25 20.6906 26.25 21C26.25 21.3094 26.1183 21.6062 25.8839 21.825C25.6495 22.0438 25.3315 22.1667 25 22.1667H22.5V23.3333C22.5 23.6428 22.3683 23.9395 22.1339 24.1583C21.8995 24.3771 21.5815 24.5 21.25 24.5C20.9185 24.5 20.6005 24.3771 20.3661 24.1583C20.1317 23.9395 20 23.6428 20 23.3333V22.1667H5C4.66848 22.1667 4.35054 22.0438 4.11612 21.825C3.8817 21.6062 3.75 21.3094 3.75 21Z" fill="white"/>
</g>
<defs>
<clipPath id="clip0_8_521">
<rect width="30" height="28" fill="white"/>
</clipPath>
</defs>
</svg>
