<svg width="15" height="19" viewBox="0 0 15 19" fill="none" xmlns="http://www.w3.org/2000/svg">
<path d="M6.68525 0.268387C6.85715 0.096539 7.09027 0 7.33333 0C7.5764 0 7.80952 0.096539 7.98142 0.268387L10.7314 3.01839C10.8984 3.19127 10.9908 3.42283 10.9887 3.66317C10.9866 3.90352 10.8902 4.13343 10.7203 4.30339C10.5503 4.47335 10.3204 4.56975 10.08 4.57184C9.83969 4.57393 9.60814 4.48153 9.43525 4.31455L8.25 3.1293V11.9165C8.25 12.1596 8.15342 12.3927 7.98151 12.5647C7.80961 12.7366 7.57645 12.8331 7.33333 12.8331C7.09022 12.8331 6.85706 12.7366 6.68515 12.5647C6.51324 12.3927 6.41667 12.1596 6.41667 11.9165V3.1293L5.23142 4.31455C5.05853 4.48153 4.82698 4.57393 4.58663 4.57184C4.34629 4.56975 4.11637 4.47335 3.94642 4.30339C3.77646 4.13343 3.68005 3.90352 3.67797 3.66317C3.67588 3.42283 3.76827 3.19127 3.93525 3.01839L6.68525 0.268387ZM0 8.2498C0 7.76357 0.193154 7.29726 0.536971 6.95344C0.880787 6.60963 1.3471 6.41647 1.83333 6.41647H3.66667C3.90978 6.41647 4.14294 6.51305 4.31485 6.68496C4.48676 6.85686 4.58333 7.09002 4.58333 7.33314C4.58333 7.57625 4.48676 7.80941 4.31485 7.98132C4.14294 8.15323 3.90978 8.2498 3.66667 8.2498H1.83333V16.4998H12.8333V8.2498H11C10.7569 8.2498 10.5237 8.15323 10.3518 7.98132C10.1799 7.80941 10.0833 7.57625 10.0833 7.33314C10.0833 7.09002 10.1799 6.85686 10.3518 6.68496C10.5237 6.51305 10.7569 6.41647 11 6.41647H12.8333C13.3196 6.41647 13.7859 6.60963 14.1297 6.95344C14.4735 7.29726 14.6667 7.76357 14.6667 8.2498V16.4998C14.6667 16.986 14.4735 17.4524 14.1297 17.7962C13.7859 18.14 13.3196 18.3331 12.8333 18.3331H1.83333C1.3471 18.3331 0.880787 18.14 0.536971 17.7962C0.193154 17.4524 0 16.986 0 16.4998V8.2498Z" fill="white"/>
</svg>
