<svg width="22" height="13" viewBox="0 0 22 13" fill="none" xmlns="http://www.w3.org/2000/svg">
<path d="M4.87622 0.333374L4.58335 0.584336L0.151991 4.5655C0.0310201 4.65391 -0.0246904 4.79507 0.0103277 4.93196C0.0453454 5.06742 0.164725 5.17437 0.315939 5.20574C0.468744 5.23711 0.626325 5.1872 0.725011 5.07883L4.46874 1.72507V12.505C4.46715 12.6362 4.54355 12.7588 4.67089 12.8258C4.79823 12.8914 4.95422 12.8914 5.08156 12.8258C5.2089 12.7588 5.2853 12.6362 5.28371 12.505V1.72507L9.02744 5.07883C9.12613 5.1872 9.28371 5.23711 9.43651 5.20574C9.58772 5.17437 9.7071 5.06742 9.74212 4.93196C9.77714 4.79507 9.72143 4.65391 9.60046 4.5655L5.1691 0.584336L4.87622 0.333374Z" fill="#5C54A4"/>
<path d="M16.6291 12.875L16.922 12.624L21.3534 8.64287C21.4744 8.55447 21.5301 8.4133 21.495 8.27641C21.46 8.14095 21.3406 8.03401 21.1894 8.00264C21.0366 7.97127 20.879 8.02117 20.7804 8.12954L17.0366 11.4833V0.70336C17.0382 0.572175 16.9618 0.449546 16.8345 0.382527C16.7071 0.316936 16.5512 0.316936 16.4238 0.382527C16.2965 0.449546 16.2201 0.572175 16.2217 0.70336V11.4833L12.4779 8.12954C12.3792 8.02117 12.2217 7.97127 12.0689 8.00264C11.9176 8.03401 11.7983 8.14095 11.7632 8.27641C11.7282 8.4133 11.7839 8.55447 11.9049 8.64287L16.3363 12.624L16.6291 12.875Z" fill="#5C54A4"/>
</svg>
