<svg xmlns="http://www.w3.org/2000/svg" xmlns:xlink="http://www.w3.org/1999/xlink" width="500" zoomAndPan="magnify" viewBox="0 0 375 374.999991" height="500" preserveAspectRatio="xMidYMid meet" version="1.0"><defs><g/><clipPath id="61f7923d04"><path d="M 162.640625 171 L 327 171 L 327 187 L 162.640625 187 Z M 162.640625 171 " clip-rule="nonzero"/></clipPath></defs><g clip-path="url(#61f7923d04)"><path fill="#000000" d="M 163.722656 180.082031 C 163.269531 180.789062 162.65625 180.230469 163.046875 179.613281 C 177.511719 156.8125 186.585938 187.742188 215.664062 185.144531 C 260.4375 181.148438 297.867188 168.386719 325.722656 179.375 C 327.664062 180.140625 326.296875 181.746094 324.660156 180.996094 C 301.476562 170.363281 258.40625 181.496094 215.46875 186.007812 C 186.378906 189.0625 178.15625 157.65625 163.722656 180.082031 Z M 163.722656 180.082031 " fill-opacity="1" fill-rule="nonzero"/></g><g fill="#0b1533" fill-opacity="1"><g transform="translate(9.434341, 188.588502)"><g><path d="M 36.453125 14.359375 C 35.191406 14.503906 34.238281 13.992188 33.59375 12.828125 C 32.945312 11.671875 32.539062 9.960938 32.375 7.703125 C 32.21875 5.441406 32.269531 2.726562 32.53125 -0.4375 C 32.800781 -3.613281 33.210938 -7.113281 33.765625 -10.9375 C 34.328125 -14.769531 35.003906 -18.847656 35.796875 -23.171875 C 36.585938 -27.503906 37.425781 -31.945312 38.3125 -36.5 C 38.363281 -36.757812 38.242188 -36.960938 37.953125 -37.109375 C 37.660156 -37.265625 37.300781 -37.304688 36.875 -37.234375 C 36.445312 -37.160156 36.039062 -36.945312 35.65625 -36.59375 C 35.28125 -36.238281 35.019531 -35.707031 34.875 -35 C 33.789062 -29.6875 32.804688 -24.648438 31.921875 -19.890625 C 31.046875 -15.140625 30.363281 -10.753906 29.875 -6.734375 C 29.394531 -2.710938 29.21875 0.828125 29.34375 3.890625 C 29.476562 6.960938 30 9.46875 30.90625 11.40625 C 31.820312 13.34375 33.234375 14.601562 35.140625 15.1875 C 35.984375 15.457031 37.007812 15.191406 38.21875 14.390625 C 39.425781 13.597656 40.722656 12.453125 42.109375 10.953125 C 43.503906 9.460938 44.925781 7.769531 46.375 5.875 C 47.832031 3.976562 49.257812 2.023438 50.65625 0.015625 C 52.050781 -1.992188 53.347656 -3.898438 54.546875 -5.703125 C 55.753906 -7.503906 56.785156 -9.035156 57.640625 -10.296875 C 57.640625 -10.421875 57.535156 -10.492188 57.328125 -10.515625 C 57.117188 -10.546875 56.972656 -10.503906 56.890625 -10.390625 C 56.535156 -9.984375 55.945312 -9.160156 55.125 -7.921875 C 54.300781 -6.691406 53.320312 -5.222656 52.1875 -3.515625 C 51.0625 -1.816406 49.832031 -0.03125 48.5 1.84375 C 47.164062 3.726562 45.789062 5.535156 44.375 7.265625 C 42.96875 8.992188 41.585938 10.488281 40.234375 11.75 C 38.890625 13.019531 37.628906 13.890625 36.453125 14.359375 Z M 58.875 -41.390625 C 57.257812 -40.304688 55.457031 -39.523438 53.46875 -39.046875 C 51.488281 -38.578125 49.390625 -38.3125 47.171875 -38.25 C 44.960938 -38.195312 42.675781 -38.238281 40.3125 -38.375 C 37.945312 -38.507812 35.582031 -38.640625 33.21875 -38.765625 C 30.851562 -38.898438 28.539062 -38.929688 26.28125 -38.859375 C 24.019531 -38.785156 21.875 -38.515625 19.84375 -38.046875 C 17.820312 -37.578125 15.96875 -36.796875 14.28125 -35.703125 C 12.59375 -34.617188 11.140625 -33.128906 9.921875 -31.234375 C 8.710938 -29.347656 7.796875 -26.953125 7.171875 -24.046875 C 6.992188 -24.015625 6.867188 -23.953125 6.796875 -23.859375 C 6.722656 -23.773438 6.613281 -23.75 6.46875 -23.78125 C 7.0625 -26.863281 7.960938 -29.398438 9.171875 -31.390625 C 10.390625 -33.390625 11.847656 -34.96875 13.546875 -36.125 C 15.253906 -37.28125 17.132812 -38.113281 19.1875 -38.625 C 21.25 -39.144531 23.429688 -39.457031 25.734375 -39.5625 C 28.035156 -39.664062 30.390625 -39.648438 32.796875 -39.515625 C 35.203125 -39.378906 37.601562 -39.242188 40 -39.109375 C 42.394531 -38.984375 44.722656 -38.941406 46.984375 -38.984375 C 49.242188 -39.035156 51.363281 -39.296875 53.34375 -39.765625 C 55.320312 -40.234375 57.09375 -41.007812 58.65625 -42.09375 C 59.125 -42.414062 59.367188 -42.492188 59.390625 -42.328125 C 59.421875 -42.171875 59.25 -41.859375 58.875 -41.390625 Z M 58.875 -41.390625 "/></g></g></g><g fill="#0b1533" fill-opacity="1"><g transform="translate(66.264166, 188.588502)"><g><path d="M 11.9375 2.640625 C 12.695312 2.140625 13.5 1.457031 14.34375 0.59375 C 15.195312 -0.269531 16.054688 -1.226562 16.921875 -2.28125 C 17.796875 -3.34375 18.617188 -4.398438 19.390625 -5.453125 C 20.171875 -6.515625 20.867188 -7.484375 21.484375 -8.359375 C 22.097656 -9.242188 22.597656 -9.921875 22.984375 -10.390625 C 23.066406 -10.484375 23.210938 -10.53125 23.421875 -10.53125 C 23.628906 -10.53125 23.734375 -10.46875 23.734375 -10.34375 C 23.117188 -9.550781 22.390625 -8.5625 21.546875 -7.375 C 20.710938 -6.1875 19.800781 -4.945312 18.8125 -3.65625 C 17.832031 -2.363281 16.820312 -1.140625 15.78125 0.015625 C 14.738281 1.179688 13.71875 2.128906 12.71875 2.859375 C 11.570312 3.710938 10.601562 4.109375 9.8125 4.046875 C 9.019531 3.992188 8.390625 3.597656 7.921875 2.859375 C 7.453125 2.128906 7.125 1.171875 6.9375 -0.015625 C 6.75 -1.210938 6.691406 -2.53125 6.765625 -3.96875 C 6.835938 -5.40625 7.023438 -6.859375 7.328125 -8.328125 C 7.640625 -9.796875 8.046875 -11.171875 8.546875 -12.453125 C 7.046875 -9.578125 5.882812 -7.441406 5.0625 -6.046875 C 4.238281 -4.660156 3.519531 -3.894531 2.90625 -3.75 C 2.175781 -3.59375 1.53125 -3.785156 0.96875 -4.328125 C 0.40625 -4.878906 0.0234375 -5.6875 -0.171875 -6.75 C -0.378906 -7.820312 -0.320312 -9.082031 0 -10.53125 C 0.351562 -12.050781 0.941406 -13.257812 1.765625 -14.15625 C 2.585938 -15.050781 3.488281 -15.695312 4.46875 -16.09375 C 5.445312 -16.488281 6.40625 -16.691406 7.34375 -16.703125 C 8.289062 -16.722656 9.070312 -16.597656 9.6875 -16.328125 L 10.078125 -17.125 C 10.378906 -17.769531 10.800781 -18.164062 11.34375 -18.3125 C 11.882812 -18.457031 12.359375 -18.4375 12.765625 -18.25 C 13.179688 -18.0625 13.34375 -17.789062 13.25 -17.4375 C 12.84375 -16.726562 12.410156 -15.78125 11.953125 -14.59375 C 11.492188 -13.40625 11.050781 -12.078125 10.625 -10.609375 C 10.207031 -9.140625 9.84375 -7.648438 9.53125 -6.140625 C 9.226562 -4.628906 9.015625 -3.21875 8.890625 -1.90625 C 8.773438 -0.601562 8.789062 0.5 8.9375 1.40625 C 9.082031 2.320312 9.390625 2.910156 9.859375 3.171875 C 10.328125 3.429688 11.019531 3.253906 11.9375 2.640625 Z M 9.421875 -15.71875 C 8.304688 -16.15625 7.316406 -16.128906 6.453125 -15.640625 C 5.585938 -15.160156 4.859375 -14.414062 4.265625 -13.40625 C 3.679688 -12.394531 3.242188 -11.296875 2.953125 -10.109375 C 2.660156 -8.921875 2.535156 -7.816406 2.578125 -6.796875 C 2.617188 -5.785156 2.832031 -5.0625 3.21875 -4.625 C 3.445312 -4.800781 3.796875 -5.273438 4.265625 -6.046875 C 4.734375 -6.828125 5.257812 -7.773438 5.84375 -8.890625 C 6.4375 -10.003906 7.039062 -11.160156 7.65625 -12.359375 C 8.28125 -13.566406 8.867188 -14.6875 9.421875 -15.71875 Z M 9.421875 -15.71875 "/></g></g></g><g fill="#0b1533" fill-opacity="1"><g transform="translate(89.242607, 188.588502)"><g><path d="M 8.765625 3.078125 C 9.023438 1.734375 9.234375 0.539062 9.390625 -0.5 C 9.554688 -1.539062 9.734375 -2.632812 9.921875 -3.78125 C 10.117188 -4.925781 10.363281 -6.351562 10.65625 -8.0625 C 9.570312 -6.351562 8.59375 -5.019531 7.71875 -4.0625 C 6.851562 -3.113281 6.09375 -2.429688 5.4375 -2.015625 C 4.78125 -1.609375 4.210938 -1.359375 3.734375 -1.265625 C 3.265625 -1.179688 2.867188 -1.15625 2.546875 -1.1875 C 1.554688 -1.25 0.773438 -1.644531 0.203125 -2.375 C -0.367188 -3.113281 -0.722656 -4.050781 -0.859375 -5.1875 C -0.992188 -6.332031 -0.925781 -7.550781 -0.65625 -8.84375 C -0.394531 -10.132812 0.046875 -11.375 0.671875 -12.5625 C 1.304688 -13.757812 2.113281 -14.773438 3.09375 -15.609375 C 4.082031 -16.441406 5.238281 -16.945312 6.5625 -17.125 C 8.613281 -17.394531 10.285156 -16.617188 11.578125 -14.796875 L 11.890625 -16.203125 C 12.035156 -16.609375 12.296875 -16.898438 12.671875 -17.078125 C 13.054688 -17.253906 13.453125 -17.332031 13.859375 -17.3125 C 14.273438 -17.300781 14.613281 -17.207031 14.875 -17.03125 C 15.144531 -16.863281 15.25 -16.601562 15.1875 -16.25 C 14.8125 -14.519531 14.429688 -12.585938 14.046875 -10.453125 C 13.660156 -8.328125 13.304688 -6.242188 12.984375 -4.203125 C 12.660156 -2.160156 12.351562 -0.363281 12.0625 1.1875 C 13.320312 0.394531 14.726562 -0.628906 16.28125 -1.890625 C 17.84375 -3.148438 19.398438 -4.515625 20.953125 -5.984375 C 22.515625 -7.453125 23.910156 -8.90625 25.140625 -10.34375 C 25.203125 -10.4375 25.359375 -10.484375 25.609375 -10.484375 C 25.859375 -10.484375 25.984375 -10.421875 25.984375 -10.296875 C 24.546875 -8.566406 22.96875 -6.894531 21.25 -5.28125 C 19.53125 -3.664062 17.863281 -2.21875 16.25 -0.9375 C 14.632812 0.332031 13.222656 1.320312 12.015625 2.03125 C 11.140625 7.28125 10.128906 11.867188 8.984375 15.796875 C 7.835938 19.734375 6.566406 22.78125 5.171875 24.9375 C 3.773438 27.101562 2.210938 28.195312 0.484375 28.21875 C -0.304688 28.21875 -0.957031 27.8125 -1.46875 27 C -1.988281 26.195312 -2.320312 25.101562 -2.46875 23.71875 C -2.613281 22.34375 -2.53125 20.789062 -2.21875 19.0625 C -1.914062 17.332031 -1.328125 15.519531 -0.453125 13.625 C 0.410156 11.726562 1.597656 9.867188 3.109375 8.046875 C 4.617188 6.234375 6.503906 4.578125 8.765625 3.078125 Z M 8.625 4.046875 C 6.507812 5.515625 4.753906 7.117188 3.359375 8.859375 C 1.972656 10.609375 0.882812 12.382812 0.09375 14.1875 C -0.695312 16 -1.238281 17.726562 -1.53125 19.375 C -1.832031 21.019531 -1.914062 22.476562 -1.78125 23.75 C -1.644531 25.03125 -1.359375 26.015625 -0.921875 26.703125 C -0.484375 27.390625 0.0546875 27.675781 0.703125 27.5625 C 1.460938 27.414062 2.207031 26.644531 2.9375 25.25 C 3.675781 23.851562 4.390625 22.046875 5.078125 19.828125 C 5.773438 17.617188 6.421875 15.148438 7.015625 12.421875 C 7.617188 9.691406 8.15625 6.898438 8.625 4.046875 Z M 11.40625 -13.609375 C 11.257812 -14.078125 10.957031 -14.546875 10.5 -15.015625 C 10.039062 -15.484375 9.523438 -15.859375 8.953125 -16.140625 C 8.390625 -16.421875 7.84375 -16.484375 7.3125 -16.328125 C 6.375 -16.097656 5.554688 -15.59375 4.859375 -14.8125 C 4.171875 -14.039062 3.59375 -13.117188 3.125 -12.046875 C 2.65625 -10.972656 2.296875 -9.863281 2.046875 -8.71875 C 1.796875 -7.570312 1.660156 -6.492188 1.640625 -5.484375 C 1.628906 -4.472656 1.734375 -3.628906 1.953125 -2.953125 C 2.179688 -2.273438 2.515625 -1.894531 2.953125 -1.8125 C 3.390625 -1.71875 3.984375 -1.882812 4.734375 -2.3125 C 5.484375 -2.738281 6.363281 -3.53125 7.375 -4.6875 C 8.382812 -5.84375 9.519531 -7.476562 10.78125 -9.59375 C 10.84375 -9.65625 10.914062 -10.046875 11 -10.765625 C 11.09375 -11.484375 11.226562 -12.429688 11.40625 -13.609375 Z M 11.40625 -13.609375 "/></g></g></g><g fill="#0b1533" fill-opacity="1"><g transform="translate(114.334008, 188.588502)"><g><path d="M 11.9375 2.640625 C 12.695312 2.140625 13.5 1.457031 14.34375 0.59375 C 15.195312 -0.269531 16.054688 -1.226562 16.921875 -2.28125 C 17.796875 -3.34375 18.617188 -4.398438 19.390625 -5.453125 C 20.171875 -6.515625 20.867188 -7.484375 21.484375 -8.359375 C 22.097656 -9.242188 22.597656 -9.921875 22.984375 -10.390625 C 23.066406 -10.484375 23.210938 -10.53125 23.421875 -10.53125 C 23.628906 -10.53125 23.734375 -10.46875 23.734375 -10.34375 C 23.117188 -9.550781 22.390625 -8.5625 21.546875 -7.375 C 20.710938 -6.1875 19.800781 -4.945312 18.8125 -3.65625 C 17.832031 -2.363281 16.820312 -1.140625 15.78125 0.015625 C 14.738281 1.179688 13.71875 2.128906 12.71875 2.859375 C 11.570312 3.710938 10.601562 4.109375 9.8125 4.046875 C 9.019531 3.992188 8.390625 3.597656 7.921875 2.859375 C 7.453125 2.128906 7.125 1.171875 6.9375 -0.015625 C 6.75 -1.210938 6.691406 -2.53125 6.765625 -3.96875 C 6.835938 -5.40625 7.023438 -6.859375 7.328125 -8.328125 C 7.640625 -9.796875 8.046875 -11.171875 8.546875 -12.453125 C 7.046875 -9.578125 5.882812 -7.441406 5.0625 -6.046875 C 4.238281 -4.660156 3.519531 -3.894531 2.90625 -3.75 C 2.175781 -3.59375 1.53125 -3.785156 0.96875 -4.328125 C 0.40625 -4.878906 0.0234375 -5.6875 -0.171875 -6.75 C -0.378906 -7.820312 -0.320312 -9.082031 0 -10.53125 C 0.351562 -12.050781 0.941406 -13.257812 1.765625 -14.15625 C 2.585938 -15.050781 3.488281 -15.695312 4.46875 -16.09375 C 5.445312 -16.488281 6.40625 -16.691406 7.34375 -16.703125 C 8.289062 -16.722656 9.070312 -16.597656 9.6875 -16.328125 L 10.078125 -17.125 C 10.378906 -17.769531 10.800781 -18.164062 11.34375 -18.3125 C 11.882812 -18.457031 12.359375 -18.4375 12.765625 -18.25 C 13.179688 -18.0625 13.34375 -17.789062 13.25 -17.4375 C 12.84375 -16.726562 12.410156 -15.78125 11.953125 -14.59375 C 11.492188 -13.40625 11.050781 -12.078125 10.625 -10.609375 C 10.207031 -9.140625 9.84375 -7.648438 9.53125 -6.140625 C 9.226562 -4.628906 9.015625 -3.21875 8.890625 -1.90625 C 8.773438 -0.601562 8.789062 0.5 8.9375 1.40625 C 9.082031 2.320312 9.390625 2.910156 9.859375 3.171875 C 10.328125 3.429688 11.019531 3.253906 11.9375 2.640625 Z M 9.421875 -15.71875 C 8.304688 -16.15625 7.316406 -16.128906 6.453125 -15.640625 C 5.585938 -15.160156 4.859375 -14.414062 4.265625 -13.40625 C 3.679688 -12.394531 3.242188 -11.296875 2.953125 -10.109375 C 2.660156 -8.921875 2.535156 -7.816406 2.578125 -6.796875 C 2.617188 -5.785156 2.832031 -5.0625 3.21875 -4.625 C 3.445312 -4.800781 3.796875 -5.273438 4.265625 -6.046875 C 4.734375 -6.828125 5.257812 -7.773438 5.84375 -8.890625 C 6.4375 -10.003906 7.039062 -11.160156 7.65625 -12.359375 C 8.28125 -13.566406 8.867188 -14.6875 9.421875 -15.71875 Z M 9.421875 -15.71875 "/></g></g></g><g fill="#0b1533" fill-opacity="1"><g transform="translate(137.31245, 188.588502)"><g><path d="M 1.71875 3.828125 C 1.539062 4.390625 1.207031 4.785156 0.71875 5.015625 C 0.238281 5.253906 -0.21875 5.289062 -0.65625 5.125 C -1.101562 4.96875 -1.328125 4.609375 -1.328125 4.046875 C -1.171875 0.734375 -0.945312 -2.585938 -0.65625 -5.921875 C -0.363281 -9.253906 0.0195312 -12.472656 0.5 -15.578125 C 0.988281 -18.691406 1.570312 -21.582031 2.25 -24.25 C 2.925781 -26.925781 3.703125 -29.269531 4.578125 -31.28125 C 5.460938 -33.289062 6.453125 -34.859375 7.546875 -35.984375 C 8.648438 -37.117188 9.863281 -37.6875 11.1875 -37.6875 C 12.0625 -37.6875 12.8125 -37.347656 13.4375 -36.671875 C 14.070312 -36.003906 14.441406 -35.007812 14.546875 -33.6875 C 14.648438 -32.363281 14.378906 -30.71875 13.734375 -28.75 C 13.085938 -26.78125 11.945312 -24.488281 10.3125 -21.875 C 8.6875 -19.269531 6.4375 -16.351562 3.5625 -13.125 C 3.445312 -12.675781 3.316406 -11.914062 3.171875 -10.84375 C 3.023438 -9.78125 2.867188 -8.53125 2.703125 -7.09375 C 2.546875 -5.65625 2.382812 -4.148438 2.21875 -2.578125 C 2.0625 -1.003906 1.894531 0.5 1.71875 1.9375 C 2.65625 -0.40625 3.613281 -2.613281 4.59375 -4.6875 C 5.582031 -6.757812 6.566406 -8.570312 7.546875 -10.125 C 8.535156 -11.675781 9.5 -12.851562 10.4375 -13.65625 C 11.375 -14.46875 12.269531 -14.773438 13.125 -14.578125 C 14 -14.367188 14.613281 -13.890625 14.96875 -13.140625 C 15.320312 -12.390625 15.488281 -11.472656 15.46875 -10.390625 C 15.457031 -9.304688 15.347656 -8.140625 15.140625 -6.890625 C 14.941406 -5.640625 14.707031 -4.40625 14.4375 -3.1875 C 14.175781 -1.96875 13.988281 -0.847656 13.875 0.171875 C 13.695312 1.609375 13.742188 2.523438 14.015625 2.921875 C 14.296875 3.316406 14.878906 3.222656 15.765625 2.640625 C 16.523438 2.140625 17.320312 1.445312 18.15625 0.5625 C 19 -0.3125 19.851562 -1.273438 20.71875 -2.328125 C 21.582031 -3.390625 22.398438 -4.445312 23.171875 -5.5 C 23.953125 -6.5625 24.660156 -7.523438 25.296875 -8.390625 C 25.929688 -9.253906 26.4375 -9.921875 26.8125 -10.390625 C 26.90625 -10.484375 27.050781 -10.53125 27.25 -10.53125 C 27.457031 -10.53125 27.5625 -10.46875 27.5625 -10.34375 C 26.945312 -9.550781 26.21875 -8.5625 25.375 -7.375 C 24.539062 -6.1875 23.628906 -4.945312 22.640625 -3.65625 C 21.660156 -2.363281 20.648438 -1.140625 19.609375 0.015625 C 18.566406 1.179688 17.550781 2.128906 16.5625 2.859375 C 15.59375 3.566406 14.738281 3.90625 14 3.875 C 13.269531 3.84375 12.695312 3.539062 12.28125 2.96875 C 11.875 2.394531 11.65625 1.695312 11.625 0.875 C 11.59375 -0.289062 11.6875 -1.539062 11.90625 -2.875 C 12.125 -4.21875 12.378906 -5.523438 12.671875 -6.796875 C 12.972656 -8.078125 13.222656 -9.242188 13.421875 -10.296875 C 13.628906 -11.359375 13.710938 -12.21875 13.671875 -12.875 C 13.628906 -13.539062 13.382812 -13.914062 12.9375 -14 C 12.269531 -14.113281 11.53125 -13.789062 10.71875 -13.03125 C 9.914062 -12.269531 9.085938 -11.21875 8.234375 -9.875 C 7.378906 -8.539062 6.546875 -7.0625 5.734375 -5.4375 C 4.929688 -3.8125 4.1875 -2.179688 3.5 -0.546875 C 2.8125 1.078125 2.21875 2.535156 1.71875 3.828125 Z M 3.703125 -14.265625 C 6.335938 -17.410156 8.40625 -20.222656 9.90625 -22.703125 C 11.40625 -25.179688 12.453125 -27.335938 13.046875 -29.171875 C 13.648438 -31.003906 13.90625 -32.503906 13.8125 -33.671875 C 13.726562 -34.847656 13.421875 -35.71875 12.890625 -36.28125 C 12.367188 -36.84375 11.726562 -37.09375 10.96875 -37.03125 C 10.40625 -37 9.828125 -36.523438 9.234375 -35.609375 C 8.648438 -34.703125 8.078125 -33.492188 7.515625 -31.984375 C 6.960938 -30.472656 6.4375 -28.75 5.9375 -26.8125 C 5.445312 -24.875 5.007812 -22.832031 4.625 -20.6875 C 4.238281 -18.550781 3.929688 -16.410156 3.703125 -14.265625 Z M 3.703125 -14.265625 "/></g></g></g><g fill="#0b1533" fill-opacity="1"><g transform="translate(109.996564, 206.693468)"><g><path d="M 6.40625 -6.96875 L 3.78125 -2.328125 L 3.78125 0 L 2.859375 0 L 2.859375 -2.328125 L 0.265625 -6.96875 L 1.421875 -6.96875 L 3.34375 -3.390625 L 5.25 -6.96875 Z M 6.40625 -6.96875 "/></g></g></g><g fill="#0b1533" fill-opacity="1"><g transform="translate(119.149386, 206.693468)"><g><path d="M 0.5625 -3.484375 C 0.5625 -4.117188 0.722656 -4.707031 1.046875 -5.25 C 1.367188 -5.800781 1.800781 -6.238281 2.34375 -6.5625 C 2.882812 -6.882812 3.476562 -7.046875 4.125 -7.046875 C 4.757812 -7.046875 5.347656 -6.882812 5.890625 -6.5625 C 6.441406 -6.238281 6.878906 -5.800781 7.203125 -5.25 C 7.523438 -4.707031 7.6875 -4.117188 7.6875 -3.484375 C 7.6875 -2.835938 7.523438 -2.238281 7.203125 -1.6875 C 6.890625 -1.144531 6.457031 -0.710938 5.90625 -0.390625 C 5.351562 -0.078125 4.757812 0.078125 4.125 0.078125 C 3.476562 0.078125 2.878906 -0.078125 2.328125 -0.390625 C 1.785156 -0.710938 1.351562 -1.144531 1.03125 -1.6875 C 0.71875 -2.226562 0.5625 -2.828125 0.5625 -3.484375 Z M 1.53125 -3.46875 C 1.53125 -2.988281 1.644531 -2.546875 1.875 -2.140625 C 2.113281 -1.742188 2.429688 -1.425781 2.828125 -1.1875 C 3.234375 -0.945312 3.671875 -0.828125 4.140625 -0.828125 C 4.617188 -0.828125 5.054688 -0.941406 5.453125 -1.171875 C 5.847656 -1.410156 6.160156 -1.734375 6.390625 -2.140625 C 6.617188 -2.546875 6.734375 -2.992188 6.734375 -3.484375 C 6.734375 -3.960938 6.613281 -4.40625 6.375 -4.8125 C 6.144531 -5.226562 5.832031 -5.554688 5.4375 -5.796875 C 5.039062 -6.035156 4.601562 -6.15625 4.125 -6.15625 C 3.644531 -6.15625 3.207031 -6.03125 2.8125 -5.78125 C 2.414062 -5.539062 2.101562 -5.210938 1.875 -4.796875 C 1.644531 -4.390625 1.53125 -3.945312 1.53125 -3.46875 Z M 1.53125 -3.46875 "/></g></g></g><g fill="#0b1533" fill-opacity="1"><g transform="translate(129.893555, 206.693468)"><g><path d="M 1.84375 -2.46875 C 1.84375 -2.15625 1.914062 -1.875 2.0625 -1.625 C 2.21875 -1.382812 2.421875 -1.191406 2.671875 -1.046875 C 2.929688 -0.898438 3.210938 -0.828125 3.515625 -0.828125 C 3.835938 -0.828125 4.128906 -0.894531 4.390625 -1.03125 C 4.648438 -1.175781 4.851562 -1.375 5 -1.625 C 5.144531 -1.875 5.21875 -2.15625 5.21875 -2.46875 L 5.21875 -6.96875 L 6.140625 -6.96875 L 6.140625 -2.4375 C 6.140625 -1.945312 6.023438 -1.507812 5.796875 -1.125 C 5.566406 -0.738281 5.25 -0.441406 4.84375 -0.234375 C 4.445312 -0.0234375 4.003906 0.078125 3.515625 0.078125 C 3.035156 0.078125 2.59375 -0.0234375 2.1875 -0.234375 C 1.789062 -0.441406 1.476562 -0.738281 1.25 -1.125 C 1.03125 -1.507812 0.921875 -1.945312 0.921875 -2.4375 L 0.921875 -6.96875 L 1.84375 -6.96875 Z M 1.84375 -2.46875 "/></g></g></g><g fill="#0b1533" fill-opacity="1"><g transform="translate(139.432157, 206.693468)"><g><path d="M 4.84375 0 L 3.203125 -2.578125 C 3.148438 -2.566406 3.070312 -2.5625 2.96875 -2.5625 L 1.9375 -2.5625 L 1.9375 0 L 1 0 L 1 -6.96875 L 2.859375 -6.96875 C 3.335938 -6.96875 3.757812 -6.882812 4.125 -6.71875 C 4.5 -6.550781 4.789062 -6.304688 5 -5.984375 C 5.21875 -5.660156 5.328125 -5.269531 5.328125 -4.8125 C 5.328125 -4.382812 5.234375 -3.988281 5.046875 -3.625 C 4.859375 -3.257812 4.566406 -2.988281 4.171875 -2.8125 L 5.921875 0 Z M 2.953125 -3.46875 C 3.453125 -3.46875 3.8125 -3.597656 4.03125 -3.859375 C 4.257812 -4.128906 4.375 -4.429688 4.375 -4.765625 C 4.375 -4.972656 4.328125 -5.175781 4.234375 -5.375 C 4.140625 -5.570312 3.988281 -5.738281 3.78125 -5.875 C 3.582031 -6.007812 3.328125 -6.078125 3.015625 -6.078125 L 1.9375 -6.078125 L 1.9375 -3.46875 Z M 2.953125 -3.46875 "/></g></g></g><g fill="#0b1533" fill-opacity="1"><g transform="translate(148.276356, 206.693468)"><g/></g></g><g fill="#0b1533" fill-opacity="1"><g transform="translate(153.802842, 206.693468)"><g><path d="M 2.875 -6.96875 C 3.632812 -6.96875 4.226562 -6.773438 4.65625 -6.390625 C 5.082031 -6.015625 5.296875 -5.488281 5.296875 -4.8125 C 5.296875 -4.414062 5.21875 -4.046875 5.0625 -3.703125 C 4.90625 -3.367188 4.648438 -3.09375 4.296875 -2.875 C 3.941406 -2.664062 3.5 -2.5625 2.96875 -2.5625 L 1.9375 -2.5625 L 1.9375 0 L 1 0 L 1 -6.96875 Z M 2.96875 -3.46875 C 3.300781 -3.46875 3.570312 -3.535156 3.78125 -3.671875 C 3.988281 -3.816406 4.140625 -3.988281 4.234375 -4.1875 C 4.328125 -4.394531 4.375 -4.597656 4.375 -4.796875 C 4.375 -5.128906 4.265625 -5.425781 4.046875 -5.6875 C 3.828125 -5.945312 3.484375 -6.078125 3.015625 -6.078125 L 1.9375 -6.078125 L 1.9375 -3.46875 Z M 2.96875 -3.46875 "/></g></g></g><g fill="#0b1533" fill-opacity="1"><g transform="translate(162.020143, 206.693468)"><g><path d="M 5.53125 -6.96875 L 5.53125 -6.078125 L 1.9375 -6.078125 L 1.9375 -3.953125 L 5.140625 -3.953125 L 5.140625 -3.0625 L 1.9375 -3.0625 L 1.9375 -0.90625 L 5.671875 -0.90625 L 5.671875 0 L 1 0 L 1 -6.96875 Z M 5.53125 -6.96875 "/></g></g></g><g fill="#0b1533" fill-opacity="1"><g transform="translate(170.796834, 206.693468)"><g><path d="M 4.84375 0 L 3.203125 -2.578125 C 3.148438 -2.566406 3.070312 -2.5625 2.96875 -2.5625 L 1.9375 -2.5625 L 1.9375 0 L 1 0 L 1 -6.96875 L 2.859375 -6.96875 C 3.335938 -6.96875 3.757812 -6.882812 4.125 -6.71875 C 4.5 -6.550781 4.789062 -6.304688 5 -5.984375 C 5.21875 -5.660156 5.328125 -5.269531 5.328125 -4.8125 C 5.328125 -4.382812 5.234375 -3.988281 5.046875 -3.625 C 4.859375 -3.257812 4.566406 -2.988281 4.171875 -2.8125 L 5.921875 0 Z M 2.953125 -3.46875 C 3.453125 -3.46875 3.8125 -3.597656 4.03125 -3.859375 C 4.257812 -4.128906 4.375 -4.429688 4.375 -4.765625 C 4.375 -4.972656 4.328125 -5.175781 4.234375 -5.375 C 4.140625 -5.570312 3.988281 -5.738281 3.78125 -5.875 C 3.582031 -6.007812 3.328125 -6.078125 3.015625 -6.078125 L 1.9375 -6.078125 L 1.9375 -3.46875 Z M 2.953125 -3.46875 "/></g></g></g><g fill="#0b1533" fill-opacity="1"><g transform="translate(179.641033, 206.693468)"><g><path d="M 4.609375 -5.734375 C 4.359375 -5.859375 4.09375 -5.960938 3.8125 -6.046875 C 3.53125 -6.128906 3.265625 -6.171875 3.015625 -6.171875 C 2.628906 -6.171875 2.328125 -6.085938 2.109375 -5.921875 C 1.890625 -5.753906 1.78125 -5.519531 1.78125 -5.21875 C 1.78125 -4.9375 1.910156 -4.703125 2.171875 -4.515625 C 2.429688 -4.328125 2.800781 -4.144531 3.28125 -3.96875 C 3.632812 -3.84375 3.9375 -3.703125 4.1875 -3.546875 C 4.4375 -3.398438 4.640625 -3.191406 4.796875 -2.921875 C 4.960938 -2.660156 5.046875 -2.320312 5.046875 -1.90625 C 5.046875 -1.53125 4.953125 -1.191406 4.765625 -0.890625 C 4.585938 -0.585938 4.328125 -0.347656 3.984375 -0.171875 C 3.640625 -0.00390625 3.234375 0.078125 2.765625 0.078125 C 2.335938 0.078125 1.921875 0.0078125 1.515625 -0.125 C 1.117188 -0.269531 0.769531 -0.445312 0.46875 -0.65625 L 0.890625 -1.390625 C 1.128906 -1.210938 1.414062 -1.0625 1.75 -0.9375 C 2.082031 -0.8125 2.394531 -0.75 2.6875 -0.75 C 3.050781 -0.75 3.375 -0.84375 3.65625 -1.03125 C 3.9375 -1.226562 4.078125 -1.519531 4.078125 -1.90625 C 4.078125 -2.21875 3.957031 -2.46875 3.71875 -2.65625 C 3.488281 -2.851562 3.160156 -3.035156 2.734375 -3.203125 C 2.347656 -3.347656 2.023438 -3.488281 1.765625 -3.625 C 1.503906 -3.769531 1.28125 -3.96875 1.09375 -4.21875 C 0.90625 -4.46875 0.8125 -4.773438 0.8125 -5.140625 C 0.8125 -5.691406 1 -6.132812 1.375 -6.46875 C 1.757812 -6.8125 2.257812 -6.992188 2.875 -7.015625 C 3.625 -7.015625 4.320312 -6.828125 4.96875 -6.453125 Z M 4.609375 -5.734375 "/></g></g></g><g fill="#0b1533" fill-opacity="1"><g transform="translate(187.732967, 206.693468)"><g><path d="M 0.5625 -3.484375 C 0.5625 -4.117188 0.722656 -4.707031 1.046875 -5.25 C 1.367188 -5.800781 1.800781 -6.238281 2.34375 -6.5625 C 2.882812 -6.882812 3.476562 -7.046875 4.125 -7.046875 C 4.757812 -7.046875 5.347656 -6.882812 5.890625 -6.5625 C 6.441406 -6.238281 6.878906 -5.800781 7.203125 -5.25 C 7.523438 -4.707031 7.6875 -4.117188 7.6875 -3.484375 C 7.6875 -2.835938 7.523438 -2.238281 7.203125 -1.6875 C 6.890625 -1.144531 6.457031 -0.710938 5.90625 -0.390625 C 5.351562 -0.078125 4.757812 0.078125 4.125 0.078125 C 3.476562 0.078125 2.878906 -0.078125 2.328125 -0.390625 C 1.785156 -0.710938 1.351562 -1.144531 1.03125 -1.6875 C 0.71875 -2.226562 0.5625 -2.828125 0.5625 -3.484375 Z M 1.53125 -3.46875 C 1.53125 -2.988281 1.644531 -2.546875 1.875 -2.140625 C 2.113281 -1.742188 2.429688 -1.425781 2.828125 -1.1875 C 3.234375 -0.945312 3.671875 -0.828125 4.140625 -0.828125 C 4.617188 -0.828125 5.054688 -0.941406 5.453125 -1.171875 C 5.847656 -1.410156 6.160156 -1.734375 6.390625 -2.140625 C 6.617188 -2.546875 6.734375 -2.992188 6.734375 -3.484375 C 6.734375 -3.960938 6.613281 -4.40625 6.375 -4.8125 C 6.144531 -5.226562 5.832031 -5.554688 5.4375 -5.796875 C 5.039062 -6.035156 4.601562 -6.15625 4.125 -6.15625 C 3.644531 -6.15625 3.207031 -6.03125 2.8125 -5.78125 C 2.414062 -5.539062 2.101562 -5.210938 1.875 -4.796875 C 1.644531 -4.390625 1.53125 -3.945312 1.53125 -3.46875 Z M 1.53125 -3.46875 "/></g></g></g><g fill="#0b1533" fill-opacity="1"><g transform="translate(198.477137, 206.693468)"><g><path d="M 7.078125 -6.96875 L 7.078125 0.234375 L 7.046875 0.234375 L 1.921875 -4.96875 L 1.953125 0 L 1 0 L 1 -7.1875 L 1.046875 -7.1875 L 6.15625 -1.921875 L 6.140625 -6.96875 Z M 7.078125 -6.96875 "/></g></g></g><g fill="#0b1533" fill-opacity="1"><g transform="translate(209.038065, 206.693468)"><g><path d="M 4.65625 -1.828125 L 1.96875 -1.828125 L 1.234375 0 L 0.3125 0 L 3.359375 -7.265625 L 3.40625 -7.265625 L 6.453125 0 L 5.375 0 Z M 4.34375 -2.640625 L 3.34375 -5.1875 L 2.3125 -2.640625 Z M 4.34375 -2.640625 "/></g></g></g><g fill="#0b1533" fill-opacity="1"><g transform="translate(218.277692, 206.693468)"><g><path d="M 1.9375 -6.96875 L 1.9375 -0.90625 L 5.484375 -0.90625 L 5.484375 0 L 1 0 L 1 -6.96875 Z M 1.9375 -6.96875 "/></g></g></g><g fill="#0b1533" fill-opacity="1"><g transform="translate(226.755406, 206.693468)"><g/></g></g><g fill="#0b1533" fill-opacity="1"><g transform="translate(232.281895, 206.693468)"><g><path d="M 1.921875 -3.8125 L 2.046875 -4 L 4.890625 -6.96875 L 6.109375 -6.96875 L 3.21875 -3.984375 L 6.265625 0 L 5.078125 0 L 2.53125 -3.390625 L 1.953125 -2.8125 L 1.953125 0 L 1 0 L 1 -6.96875 L 1.953125 -6.96875 L 1.953125 -4.171875 Z M 1.921875 -3.8125 "/></g></g></g><g fill="#0b1533" fill-opacity="1"><g transform="translate(241.318985, 206.693468)"><g><path d="M 4.65625 -1.828125 L 1.96875 -1.828125 L 1.234375 0 L 0.3125 0 L 3.359375 -7.265625 L 3.40625 -7.265625 L 6.453125 0 L 5.375 0 Z M 4.34375 -2.640625 L 3.34375 -5.1875 L 2.3125 -2.640625 Z M 4.34375 -2.640625 "/></g></g></g><g fill="#0b1533" fill-opacity="1"><g transform="translate(250.558612, 206.693468)"><g><path d="M 7.078125 -6.96875 L 7.078125 0.234375 L 7.046875 0.234375 L 1.921875 -4.96875 L 1.953125 0 L 1 0 L 1 -7.1875 L 1.046875 -7.1875 L 6.15625 -1.921875 L 6.140625 -6.96875 Z M 7.078125 -6.96875 "/></g></g></g><g fill="#0b1533" fill-opacity="1"><g transform="translate(261.11954, 206.693468)"><g><path d="M 1 -6.96875 L 2.90625 -6.96875 C 3.78125 -6.96875 4.5 -6.796875 5.0625 -6.453125 C 5.632812 -6.109375 6.050781 -5.664062 6.3125 -5.125 C 6.570312 -4.582031 6.703125 -4.007812 6.703125 -3.40625 C 6.703125 -2.726562 6.539062 -2.128906 6.21875 -1.609375 C 5.90625 -1.097656 5.484375 -0.703125 4.953125 -0.421875 C 4.429688 -0.140625 3.863281 0 3.25 0 L 1 0 Z M 3.0625 -0.90625 C 3.582031 -0.90625 4.039062 -1.003906 4.4375 -1.203125 C 4.84375 -1.410156 5.160156 -1.707031 5.390625 -2.09375 C 5.617188 -2.476562 5.734375 -2.9375 5.734375 -3.46875 C 5.734375 -4.019531 5.613281 -4.488281 5.375 -4.875 C 5.132812 -5.269531 4.816406 -5.566406 4.421875 -5.765625 C 4.035156 -5.972656 3.613281 -6.078125 3.15625 -6.078125 L 1.9375 -6.078125 L 1.9375 -0.90625 Z M 3.0625 -0.90625 "/></g></g></g><g fill="#0b1533" fill-opacity="1"><g transform="translate(270.870329, 206.693468)"><g><path d="M 0.5625 -3.484375 C 0.5625 -4.117188 0.722656 -4.707031 1.046875 -5.25 C 1.367188 -5.800781 1.800781 -6.238281 2.34375 -6.5625 C 2.882812 -6.882812 3.476562 -7.046875 4.125 -7.046875 C 4.757812 -7.046875 5.347656 -6.882812 5.890625 -6.5625 C 6.441406 -6.238281 6.878906 -5.800781 7.203125 -5.25 C 7.523438 -4.707031 7.6875 -4.117188 7.6875 -3.484375 C 7.6875 -2.835938 7.523438 -2.238281 7.203125 -1.6875 C 6.890625 -1.144531 6.457031 -0.710938 5.90625 -0.390625 C 5.351562 -0.078125 4.757812 0.078125 4.125 0.078125 C 3.476562 0.078125 2.878906 -0.078125 2.328125 -0.390625 C 1.785156 -0.710938 1.351562 -1.144531 1.03125 -1.6875 C 0.71875 -2.226562 0.5625 -2.828125 0.5625 -3.484375 Z M 1.53125 -3.46875 C 1.53125 -2.988281 1.644531 -2.546875 1.875 -2.140625 C 2.113281 -1.742188 2.429688 -1.425781 2.828125 -1.1875 C 3.234375 -0.945312 3.671875 -0.828125 4.140625 -0.828125 C 4.617188 -0.828125 5.054688 -0.941406 5.453125 -1.171875 C 5.847656 -1.410156 6.160156 -1.734375 6.390625 -2.140625 C 6.617188 -2.546875 6.734375 -2.992188 6.734375 -3.484375 C 6.734375 -3.960938 6.613281 -4.40625 6.375 -4.8125 C 6.144531 -5.226562 5.832031 -5.554688 5.4375 -5.796875 C 5.039062 -6.035156 4.601562 -6.15625 4.125 -6.15625 C 3.644531 -6.15625 3.207031 -6.03125 2.8125 -5.78125 C 2.414062 -5.539062 2.101562 -5.210938 1.875 -4.796875 C 1.644531 -4.390625 1.53125 -3.945312 1.53125 -3.46875 Z M 1.53125 -3.46875 "/></g></g></g><g fill="#0b1533" fill-opacity="1"><g transform="translate(281.614499, 206.693468)"><g><path d="M 4.84375 0 L 3.203125 -2.578125 C 3.148438 -2.566406 3.070312 -2.5625 2.96875 -2.5625 L 1.9375 -2.5625 L 1.9375 0 L 1 0 L 1 -6.96875 L 2.859375 -6.96875 C 3.335938 -6.96875 3.757812 -6.882812 4.125 -6.71875 C 4.5 -6.550781 4.789062 -6.304688 5 -5.984375 C 5.21875 -5.660156 5.328125 -5.269531 5.328125 -4.8125 C 5.328125 -4.382812 5.234375 -3.988281 5.046875 -3.625 C 4.859375 -3.257812 4.566406 -2.988281 4.171875 -2.8125 L 5.921875 0 Z M 2.953125 -3.46875 C 3.453125 -3.46875 3.8125 -3.597656 4.03125 -3.859375 C 4.257812 -4.128906 4.375 -4.429688 4.375 -4.765625 C 4.375 -4.972656 4.328125 -5.175781 4.234375 -5.375 C 4.140625 -5.570312 3.988281 -5.738281 3.78125 -5.875 C 3.582031 -6.007812 3.328125 -6.078125 3.015625 -6.078125 L 1.9375 -6.078125 L 1.9375 -3.46875 Z M 2.953125 -3.46875 "/></g></g></g><g fill="#0b1533" fill-opacity="1"><g transform="translate(290.458699, 206.693468)"><g><path d="M 4.65625 -1.828125 L 1.96875 -1.828125 L 1.234375 0 L 0.3125 0 L 3.359375 -7.265625 L 3.40625 -7.265625 L 6.453125 0 L 5.375 0 Z M 4.34375 -2.640625 L 3.34375 -5.1875 L 2.3125 -2.640625 Z M 4.34375 -2.640625 "/></g></g></g><g fill="#0b1533" fill-opacity="1"><g transform="translate(299.698326, 206.693468)"><g/></g></g><g fill="#0b1533" fill-opacity="1"><g transform="translate(305.224815, 206.693468)"><g><path d="M 1.9375 -6.96875 L 1.9375 -0.90625 L 5.484375 -0.90625 L 5.484375 0 L 1 0 L 1 -6.96875 Z M 1.9375 -6.96875 "/></g></g></g><g fill="#0b1533" fill-opacity="1"><g transform="translate(313.702529, 206.693468)"><g><path d="M 4.65625 -1.828125 L 1.96875 -1.828125 L 1.234375 0 L 0.3125 0 L 3.359375 -7.265625 L 3.40625 -7.265625 L 6.453125 0 L 5.375 0 Z M 4.34375 -2.640625 L 3.34375 -5.1875 L 2.3125 -2.640625 Z M 4.34375 -2.640625 "/></g></g></g><g fill="#0b1533" fill-opacity="1"><g transform="translate(322.942145, 206.693468)"><g><path d="M 4.109375 -3.609375 C 4.503906 -3.460938 4.816406 -3.242188 5.046875 -2.953125 C 5.285156 -2.671875 5.40625 -2.335938 5.40625 -1.953125 C 5.40625 -1.515625 5.296875 -1.148438 5.078125 -0.859375 C 4.859375 -0.566406 4.570312 -0.347656 4.21875 -0.203125 C 3.875 -0.0664062 3.492188 0 3.078125 0 L 1 0 L 1 -6.96875 L 2.8125 -6.96875 C 3.519531 -6.96875 4.066406 -6.820312 4.453125 -6.53125 C 4.847656 -6.238281 5.046875 -5.800781 5.046875 -5.21875 C 5.046875 -4.851562 4.960938 -4.53125 4.796875 -4.25 C 4.640625 -3.976562 4.410156 -3.765625 4.109375 -3.609375 Z M 1.9375 -3.921875 L 3 -3.921875 C 3.351562 -3.921875 3.625 -4.023438 3.8125 -4.234375 C 4 -4.441406 4.09375 -4.703125 4.09375 -5.015625 C 4.09375 -5.367188 3.984375 -5.632812 3.765625 -5.8125 C 3.546875 -5.988281 3.238281 -6.078125 2.84375 -6.078125 L 1.9375 -6.078125 Z M 3.03125 -0.875 C 3.4375 -0.875 3.769531 -0.960938 4.03125 -1.140625 C 4.300781 -1.328125 4.4375 -1.597656 4.4375 -1.953125 C 4.4375 -2.316406 4.289062 -2.582031 4 -2.75 C 3.71875 -2.925781 3.375 -3.015625 2.96875 -3.015625 L 1.9375 -3.015625 L 1.9375 -0.875 Z M 3.03125 -0.875 "/></g></g></g></svg>