<svg width="25" height="24" viewBox="0 0 25 24" fill="none" xmlns="http://www.w3.org/2000/svg">
<path d="M9.37501 18.75C8.79845 18.75 8.30002 19.0537 8.02892 19.5H3.63048L5.69923 15.681C5.87658 15.7223 6.05939 15.75 6.25001 15.75C7.5422 15.75 8.59376 14.7405 8.59376 13.5C8.59376 12.2595 7.5422 11.25 6.25001 11.25C4.95783 11.25 3.90626 12.2595 3.90626 13.5C3.90626 14.0093 4.08986 14.4735 4.38752 14.8508L1.6508 19.905C1.58913 20.0193 1.55913 20.1469 1.56368 20.2755C1.56824 20.4041 1.60719 20.5294 1.6768 20.6394C1.7464 20.7494 1.84432 20.8403 1.96113 20.9035C2.07794 20.9666 2.20971 20.9999 2.34376 21H8.02892C8.30002 21.4463 8.79845 21.75 9.37501 21.75C9.78942 21.75 10.1868 21.592 10.4799 21.3107C10.7729 21.0294 10.9375 20.6478 10.9375 20.25C10.9375 19.8522 10.7729 19.4706 10.4799 19.1893C10.1868 18.908 9.78942 18.75 9.37501 18.75ZM6.25001 12.75C6.45117 12.7586 6.6411 12.8414 6.78027 12.9811C6.91943 13.1208 6.9971 13.3067 6.9971 13.5C6.9971 13.6933 6.91943 13.8792 6.78027 14.0189C6.6411 14.1586 6.45117 14.2414 6.25001 14.25C6.04281 14.25 5.8441 14.171 5.69759 14.0303C5.55108 13.8897 5.46876 13.6989 5.46876 13.5C5.46876 13.3011 5.55108 13.1103 5.69759 12.9697C5.8441 12.829 6.04281 12.75 6.25001 12.75ZM23.3492 19.9042L20.193 14.076C20.3217 13.7788 20.3475 13.4497 20.2664 13.1374C20.1854 12.825 20.0018 12.546 19.7429 12.3415C19.4839 12.1371 19.1633 12.018 18.8284 12.0019C18.4936 11.9858 18.1622 12.0735 17.8832 12.2521C17.6043 12.4307 17.3926 12.6908 17.2794 12.9938C17.1663 13.2968 17.1577 13.6267 17.2548 13.9347C17.352 14.2428 17.5498 14.5127 17.8191 14.7045C18.0883 14.8964 18.4147 14.9999 18.75 15C18.8086 15 18.8649 14.9895 18.9219 14.9827L21.3695 19.5H17.825C17.6645 19.0625 17.3669 18.6835 16.9729 18.4149C16.579 18.1463 16.1082 18.0014 15.625 18C14.3328 18 13.2813 19.0095 13.2813 20.25C13.2813 21.4905 14.3328 22.5 15.625 22.5C16.1082 22.4986 16.579 22.3537 16.9729 22.0851C17.3669 21.8165 17.6645 21.4375 17.825 21H22.6563C22.7905 21 22.9226 20.9668 23.0396 20.9036C23.1566 20.8403 23.2546 20.7492 23.3243 20.639C23.3939 20.5288 23.4328 20.4032 23.4372 20.2744C23.4416 20.1456 23.4113 20.0186 23.3492 19.9042ZM15.625 21C15.4239 20.9914 15.2339 20.9086 15.0948 20.7689C14.9556 20.6292 14.8779 20.4433 14.8779 20.25C14.8779 20.0567 14.9556 19.8708 15.0948 19.7311C15.2339 19.5914 15.4239 19.5086 15.625 19.5C15.8262 19.5086 16.0161 19.5914 16.1553 19.7311C16.2944 19.8708 16.3721 20.0567 16.3721 20.25C16.3721 20.4433 16.2944 20.6292 16.1553 20.7689C16.0161 20.9086 15.8262 20.9914 15.625 21ZM16.4063 6C16.2205 6.00196 16.0356 6.02512 15.8555 6.069L13.193 1.155C13.0586 0.90525 12.7789 0.75 12.5 0.75C12.2211 0.75 11.9414 0.90525 11.807 1.15425L8.76564 6.76725C8.70939 6.7605 8.65314 6.75 8.59376 6.75C8.25844 6.74989 7.93197 6.85335 7.66261 7.04509C7.39325 7.23682 7.19528 7.50666 7.09798 7.81473C7.00067 8.12279 7.00918 8.45273 7.12225 8.7558C7.23533 9.05886 7.44696 9.31896 7.72588 9.49766C8.00479 9.67636 8.3362 9.76418 8.67111 9.74814C9.00602 9.73209 9.32667 9.61304 9.58567 9.40858C9.84468 9.20411 10.0283 8.92508 10.1094 8.61272C10.1905 8.30035 10.1647 7.97124 10.036 7.674L12.5 3.126L14.5438 6.8985C14.2332 7.28608 14.0641 7.761 14.0625 8.25C14.0625 9.4905 15.1141 10.5 16.4063 10.5C17.6985 10.5 18.75 9.4905 18.75 8.25C18.75 7.0095 17.6985 6 16.4063 6ZM16.4063 9C16.2051 8.99136 16.0152 8.90857 15.876 8.76886C15.7368 8.62916 15.6592 8.4433 15.6592 8.25C15.6592 8.0567 15.7368 7.87084 15.876 7.73114C16.0152 7.59143 16.2051 7.50864 16.4063 7.5C16.6074 7.50864 16.7974 7.59143 16.9365 7.73114C17.0757 7.87084 17.1533 8.0567 17.1533 8.25C17.1533 8.4433 17.0757 8.62916 16.9365 8.76886C16.7974 8.90857 16.6074 8.99136 16.4063 9Z" fill="#545454"/>
</svg>
