<svg width="23" height="22" viewBox="0 0 23 22" fill="none" xmlns="http://www.w3.org/2000/svg">
<path d="M15.8125 18.6861L13.9509 16.9055L12.9375 17.8749L15.8125 20.6249L21.5625 15.1249L20.5491 14.1555L15.8125 18.6861Z" fill="#545454"/>
<path d="M17.9688 3.4375H15.8125V2.75C15.8114 2.38566 15.6595 2.03656 15.3902 1.77893C15.1209 1.5213 14.7559 1.37609 14.375 1.375H8.625C8.2441 1.37609 7.87913 1.5213 7.60979 1.77893C7.34045 2.03656 7.18864 2.38566 7.1875 2.75V3.4375H5.03125C4.65035 3.43859 4.28538 3.5838 4.01604 3.84143C3.7467 4.09906 3.59489 4.44816 3.59375 4.8125V19.25C3.59489 19.6143 3.7467 19.9634 4.01604 20.2211C4.28538 20.4787 4.65035 20.6239 5.03125 20.625H11.5V19.25H5.03125V4.8125H7.1875V6.875H15.8125V4.8125H17.9688V12.375H19.4062V4.8125C19.4051 4.44816 19.2533 4.09906 18.984 3.84143C18.7146 3.5838 18.3496 3.43859 17.9688 3.4375ZM14.375 5.5H8.625V2.75H14.375V5.5Z" fill="#545454"/>
</svg>
