<svg width="22" height="16" viewBox="0 0 22 16" fill="none" xmlns="http://www.w3.org/2000/svg">
<path d="M15 11.4467V2.72921C15 2.24298 14.7893 1.77666 14.4142 1.43284C14.0391 1.08903 13.5304 0.895874 13 0.895874H3C2.46957 0.895874 1.96086 1.08903 1.58579 1.43284C1.21071 1.77666 1 2.24298 1 2.72921V10.9792C1 11.2223 1.10536 11.4555 1.29289 11.6274C1.48043 11.7993 1.73478 11.8959 2 11.8959H2.71C2.90493 11.4879 3.22534 11.1408 3.63204 10.8971C4.03874 10.6534 4.5141 10.5236 5 10.5236C5.4859 10.5236 5.96126 10.6534 6.36796 10.8971C6.77466 11.1408 7.09507 11.4879 7.29 11.8959H14.71C14.783 11.7345 14.88 11.5833 15 11.4467ZM15 11.4467C15.2599 11.1236 15.6081 10.869 16.0096 10.7086C16.4111 10.5483 16.8517 10.4878 17.2868 10.5334C17.7219 10.5789 18.1362 10.7289 18.4879 10.9681C18.8396 11.2073 19.1163 11.5273 19.29 11.8959H21V9.24671C21.0004 8.58152 20.8033 7.92877 20.43 7.35837L19.2 5.47921L18.29 4.09504C18.2015 3.9582 18.0757 3.84484 17.9249 3.76608C17.7741 3.68733 17.6035 3.6459 17.43 3.64587H15V11.4467Z" stroke="white" stroke-width="1.375" stroke-linecap="round" stroke-linejoin="round"/>
<path d="M10 7.3125H5M10 4.5625H5M7.5 12.8125C7.50044 13.1534 7.41789 13.4901 7.25839 13.7981C7.09888 14.106 6.86642 14.3775 6.57796 14.5927C6.2895 14.8079 5.9523 14.9613 5.59094 15.0419C5.22957 15.1225 4.85315 15.1282 4.48909 15.0585C4.12504 14.9888 3.78253 14.8456 3.48652 14.6392C3.19051 14.4328 2.94846 14.1685 2.77802 13.8655C2.60757 13.5625 2.51302 13.2284 2.50125 12.8877C2.48948 12.547 2.5608 12.2081 2.71 11.8958C2.9402 11.414 3.34422 11.0195 3.85423 10.7784C4.36424 10.5373 4.94919 10.4644 5.51091 10.5719C6.07262 10.6794 6.57689 10.9607 6.93908 11.3687C7.30127 11.7767 7.49932 12.2865 7.5 12.8125ZM19.5 12.8125C19.5004 13.1534 19.4179 13.4901 19.2584 13.7981C19.0989 14.106 18.8664 14.3775 18.578 14.5927C18.2895 14.8079 17.9523 14.9613 17.5909 15.0419C17.2296 15.1225 16.8531 15.1282 16.4891 15.0585C16.125 14.9888 15.7825 14.8456 15.4865 14.6392C15.1905 14.4328 14.9485 14.1685 14.778 13.8655C14.6076 13.5625 14.513 13.2284 14.5013 12.8877C14.4895 12.547 14.5608 12.2081 14.71 11.8958C14.783 11.7345 14.88 11.5833 15 11.4467C15.2599 11.1235 15.6081 10.8689 16.0096 10.7086C16.4111 10.5482 16.8517 10.4878 17.2868 10.5334C17.7219 10.5789 18.1362 10.7289 18.4879 10.9681C18.8396 11.2073 19.1163 11.5273 19.29 11.8958C19.43 12.1846 19.502 12.4972 19.5 12.8125Z" stroke="white" stroke-width="1.375" stroke-linecap="round" stroke-linejoin="round"/>
</svg>
