<svg width="57" height="50" viewBox="0 0 57 50" fill="none" xmlns="http://www.w3.org/2000/svg">
<path d="M56 27.8235V15.1176C56 11.3734 54.4339 7.78254 51.6462 5.13496C48.8585 2.48739 45.0775 1 41.1351 1H15.8649C11.9225 1 8.14152 2.48739 5.35382 5.13496C2.56612 7.78254 1 11.3734 1 15.1176V34.8824C1 36.7363 1.38449 38.5721 2.13152 40.2849C2.87855 41.9978 3.97349 43.5541 5.35382 44.865C8.14152 47.5126 11.9225 49 15.8649 49H34.4757" stroke="black" stroke-width="1.375" stroke-linecap="round" stroke-linejoin="round"/>
<path d="M1.77295 39.1176L9.91889 30.0824C10.9887 29.0733 12.3927 28.4462 13.8934 28.3073C15.3941 28.1683 16.8992 28.5261 18.154 29.32C19.4089 30.1139 20.914 30.4717 22.4147 30.3327C23.9153 30.1938 25.3194 29.5668 26.3892 28.5576L33.3162 21.9788C35.3066 20.0821 37.9418 18.9187 40.7517 18.6963C43.5616 18.4739 46.3632 19.207 48.6567 20.7647L56 26.1576M16.6378 19.8329C17.2859 19.8292 17.9269 19.7043 18.5241 19.4654C19.1214 19.2264 19.6633 18.878 20.1188 18.4402C20.5743 18.0023 20.9345 17.4835 21.1789 16.9135C21.4233 16.3434 21.5471 15.7332 21.5432 15.1176C21.5393 14.5021 21.4078 13.8934 21.1562 13.3261C20.9046 12.7589 20.5378 12.2443 20.0767 11.8117C19.6157 11.3791 19.0695 11.0369 18.4692 10.8048C17.869 10.5727 17.2264 10.4551 16.5784 10.4588C15.2695 10.4663 14.0173 10.9673 13.0974 11.8516C12.1775 12.7359 11.6651 13.931 11.6729 15.1741C11.6808 16.4172 12.2083 17.6064 13.1394 18.4801C14.0705 19.3538 15.3289 19.8404 16.6378 19.8329Z" stroke="black" stroke-width="1.375" stroke-linecap="round" stroke-linejoin="round"/>
<path d="M48.4397 33.4707V47.5884" stroke="black" stroke-width="1.375" stroke-miterlimit="10" stroke-linecap="round"/>
<path d="M55.2568 39.4141L49.409 33.8602C49.2823 33.7383 49.1314 33.6415 48.965 33.5754C48.7986 33.5094 48.6201 33.4753 48.4398 33.4753C48.2594 33.4753 48.0809 33.5094 47.9145 33.5754C47.7481 33.6415 47.5972 33.7383 47.4706 33.8602L41.6227 39.4141" stroke="black" stroke-width="1.375" stroke-linecap="round" stroke-linejoin="round"/>
</svg>
